# OBJ generated by ONSHAPE BY PTC INC, 1.212 Units = meters
mtllib BearingMCPSpacer.mtl
g Part 1
v 0 0.001 -0.0045 
v 0 0.012 -0.0045 
v 0.000486536 0.012 -0.00447362 
v 0.000486536 0.001 -0.00447362 
v 0.000967367 0.012 -0.00439479 
v 0.000967367 0.001 -0.00439479 
v 0.00143686 0.012 -0.00426444 
v 0.00143686 0.001 -0.00426444 
v 0.0018895 0.012 -0.00408409 
v 0.0018895 0.001 -0.00408409 
v 0.00231999 0.012 -0.00385586 
v 0.00231999 0.001 -0.00385586 
v 0.00272328 0.012 -0.00358242 
v 0.00272328 0.001 -0.00358242 
v 0.00309465 0.012 -0.00326698 
v 0.00309465 0.001 -0.00326698 
v 0.00342973 0.012 -0.00291324 
v 0.00342973 0.001 -0.00291324 
v 0.0037246 0.012 -0.00252534 
v 0.0037246 0.001 -0.00252534 
v 0.0039758 0.012 -0.00210784 
v 0.0039758 0.001 -0.00210784 
v 0.0041804 0.012 -0.00166562 
v 0.0041804 0.001 -0.00166562 
v 0.00433597 0.012 -0.00120388 
v 0.00433597 0.001 -0.00120388 
v 0.00444072 0.012 -0.000728019 
v 0.00444072 0.001 -0.000728019 
v 0.0044934 0.012 -0.000243625 
v 0.0044934 0.001 -0.000243625 
v 0.0044934 0.012 0.000243625 
v 0.0044934 0.001 0.000243625 
v 0.00444072 0.012 0.000728019 
v 0.00444072 0.001 0.000728019 
v 0.00433597 0.012 0.00120388 
v 0.00433597 0.001 0.00120388 
v 0.0041804 0.012 0.00166562 
v 0.0041804 0.001 0.00166562 
v 0.0039758 0.012 0.00210784 
v 0.0039758 0.001 0.00210784 
v 0.0037246 0.012 0.00252534 
v 0.0037246 0.001 0.00252534 
v 0.00342973 0.012 0.00291324 
v 0.00342973 0.001 0.00291324 
v 0.00309465 0.012 0.00326698 
v 0.00309465 0.001 0.00326698 
v 0.00272328 0.012 0.00358242 
v 0.00272328 0.001 0.00358242 
v 0.00231999 0.012 0.00385586 
v 0.00231999 0.001 0.00385586 
v 0.0018895 0.012 0.00408409 
v 0.0018895 0.001 0.00408409 
v 0.00143686 0.012 0.00426444 
v 0.00143686 0.001 0.00426444 
v 0.000967367 0.012 0.00439479 
v 0.000967367 0.001 0.00439479 
v 0.000486536 0.012 0.00447362 
v 0.000486536 0.001 0.00447362 
v 1.65327e-18 0.012 0.0045 
v 5.51091e-19 0.001 0.0045 
v -0.000486536 0.012 0.00447362 
v -0.000486536 0.001 0.00447362 
v -0.000967367 0.012 0.00439479 
v -0.000967367 0.001 0.00439479 
v -0.00143686 0.012 0.00426444 
v -0.00143686 0.001 0.00426444 
v -0.0018895 0.012 0.00408409 
v -0.0018895 0.001 0.00408409 
v -0.00231999 0.012 0.00385586 
v -0.00231999 0.001 0.00385586 
v -0.00272328 0.012 0.00358242 
v -0.00272328 0.001 0.00358242 
v -0.00309465 0.012 0.00326698 
v -0.00309465 0.001 0.00326698 
v -0.00342973 0.012 0.00291324 
v -0.00342973 0.001 0.00291324 
v -0.0037246 0.012 0.00252534 
v -0.0037246 0.001 0.00252534 
v -0.0039758 0.012 0.00210784 
v -0.0039758 0.001 0.00210784 
v -0.0041804 0.012 0.00166562 
v -0.0041804 0.001 0.00166562 
v -0.00433597 0.012 0.00120388 
v -0.00433597 0.001 0.00120388 
v -0.00444072 0.012 0.000728019 
v -0.00444072 0.001 0.000728019 
v -0.0044934 0.012 0.000243625 
v -0.0044934 0.001 0.000243625 
v -0.0044934 0.012 -0.000243625 
v -0.0044934 0.001 -0.000243625 
v -0.00444072 0.012 -0.000728019 
v -0.00444072 0.001 -0.000728019 
v -0.00433597 0.012 -0.00120388 
v -0.00433597 0.001 -0.00120388 
v -0.0041804 0.012 -0.00166562 
v -0.0041804 0.001 -0.00166562 
v -0.0039758 0.012 -0.00210784 
v -0.0039758 0.001 -0.00210784 
v -0.0037246 0.012 -0.00252534 
v -0.0037246 0.001 -0.00252534 
v -0.00342973 0.012 -0.00291324 
v -0.00342973 0.001 -0.00291324 
v -0.00309465 0.012 -0.00326698 
v -0.00309465 0.001 -0.00326698 
v -0.00272328 0.012 -0.00358242 
v -0.00272328 0.001 -0.00358242 
v -0.00231999 0.012 -0.00385586 
v -0.00231999 0.001 -0.00385586 
v -0.0018895 0.012 -0.00408409 
v -0.0018895 0.001 -0.00408409 
v -0.00143686 0.012 -0.00426444 
v -0.00143686 0.001 -0.00426444 
v -0.000967367 0.012 -0.00439479 
v -0.000967367 0.001 -0.00439479 
v -0.000486536 0.012 -0.00447362 
v -0.000486536 0.001 -0.00447362 
v 0.00455229 0.001 0.00308653 
v 0.00485932 0.001 0.00257625 
v 0.00283555 0.001 0.00471271 
v 0.00332846 0.001 0.00437851 
v 0.00419189 0.001 0.00356062 
v 0.00118234 0.001 -0.00537141 
v 0.000594655 0.001 -0.00546776 
v 0.00378235 0.001 0.00399298 
v 0.00510937 0.001 0.00203576 
v 0.00332846 0.001 -0.00437851 
v 0.00283555 0.001 -0.00471271 
v 0.00175616 0.001 -0.00521209 
v 0.00175616 0.001 0.00521209 
v 0.00230939 0.001 0.00499166 
v 0.00542755 0.001 0.000889801 
v 0.00549193 0.001 0.000297764 
v 0.00549193 0.001 -0.000297764 
v 0.00542755 0.001 -0.000889801 
v 0.00529952 0.001 -0.00147141 
v 0.00419189 0.001 -0.00356062 
v 0.00378235 0.001 -0.00399298 
v -1.34711e-18 0.001 -0.0055 
v -0.000594655 0.001 -0.00546776 
v -0.00118234 0.001 -0.00537141 
v 0.00529952 0.001 0.00147141 
v 0.00510937 0.001 -0.00203576 
v 0.00485932 0.001 -0.00257625 
v 0.00455229 0.001 -0.00308653 
v 0.00230939 0.001 -0.00499166 
v -0.00175616 0.001 -0.00521209 
v -0.00230939 0.001 -0.00499166 
v -0.00283555 0.001 -0.00471271 
v -0.00332846 0.001 -0.00437851 
v -0.00529952 0.001 -0.00147141 
v -0.00542755 0.001 -0.000889801 
v -0.00378235 0.001 -0.00399298 
v -0.00419189 0.001 -0.00356062 
v -0.00455229 0.001 -0.00308653 
v -0.00485932 0.001 -0.00257625 
v -0.00510937 0.001 -0.00203576 
v -0.00549193 0.001 -0.000297764 
v -0.00529952 0.001 0.00147141 
v -0.00510937 0.001 0.00203576 
v -0.00485932 0.001 0.00257625 
v -0.00455229 0.001 0.00308653 
v -0.00419189 0.001 0.00356062 
v -0.00378235 0.001 0.00399298 
v -0.00332846 0.001 0.00437851 
v -0.00283555 0.001 0.00471271 
v -0.00230939 0.001 0.00499166 
v -0.00175616 0.001 0.00521209 
v -0.00542755 0.001 0.000889801 
v -0.00118234 0.001 0.00537141 
v -0.000594655 0.001 0.00546776 
v -0.00549193 0.001 0.000297764 
v 6.73556e-19 0.001 0.0055 
v 0.000594655 0.001 0.00546776 
v 0.00118234 0.001 0.00537141 
v 0 0 -0.0055 
v 0.000594655 0 -0.00546776 
v 0.00118234 0 -0.00537141 
v 0.00175616 0 -0.00521209 
v 0.00230939 0 -0.00499166 
v 0.00283555 0 -0.00471271 
v 0.00332846 0 -0.00437851 
v 0.00378235 0 -0.00399298 
v 0.00419189 0 -0.00356062 
v 0.00455229 0 -0.00308653 
v 0.00485932 0 -0.00257625 
v 0.00510937 0 -0.00203576 
v 0.00529952 0 -0.00147141 
v 0.00542755 0 -0.000889801 
v 0.00549193 0 -0.000297764 
v 0.00549193 0 0.000297764 
v 0.00542755 0 0.000889801 
v 0.00529952 0 0.00147141 
v 0.00510937 0 0.00203576 
v 0.00485932 0 0.00257625 
v 0.00455229 0 0.00308653 
v 0.00419189 0 0.00356062 
v 0.00378235 0 0.00399298 
v 0.00332846 0 0.00437851 
v 0.00283555 0 0.00471271 
v 0.00230939 0 0.00499166 
v 0.00175616 0 0.00521209 
v 0.00118234 0 0.00537141 
v 0.000594655 0 0.00546776 
v 6.73556e-19 0 0.0055 
v -0.000594655 0 0.00546776 
v -0.00118234 0 0.00537141 
v -0.00175616 0 0.00521209 
v -0.00230939 0 0.00499166 
v -0.00283555 0 0.00471271 
v -0.00332846 0 0.00437851 
v -0.00378235 0 0.00399298 
v -0.00419189 0 0.00356062 
v -0.00455229 0 0.00308653 
v -0.00485932 0 0.00257625 
v -0.00510937 0 0.00203576 
v -0.00529952 0 0.00147141 
v -0.00542755 0 0.000889801 
v -0.00549193 0 0.000297764 
v -0.00549193 0 -0.000297764 
v -0.00542755 0 -0.000889801 
v -0.00529952 0 -0.00147141 
v -0.00510937 0 -0.00203576 
v -0.00485932 0 -0.00257625 
v -0.00455229 0 -0.00308653 
v -0.00419189 0 -0.00356062 
v -0.00378235 0 -0.00399298 
v -0.00332846 0 -0.00437851 
v -0.00283555 0 -0.00471271 
v -0.00230939 0 -0.00499166 
v -0.00175616 0 -0.00521209 
v -0.00118234 0 -0.00537141 
v -0.000594655 0 -0.00546776 
v 0.00202073 0.012 0.0035 
v 0.00202073 0.012 -0.0035 
v 0.00404145 0.012 -8.89178e-19 
v -0.00202073 0.012 -0.0035 
v -0.00202073 0.012 0.0035 
v -0.00404145 0.012 -8.65947e-19 
v 0.00202073 0 -0.0035 
v 0.00202073 0 0.0035 
v 0.00404145 0 -8.89178e-19 
v -0.00404145 0 -8.65947e-19 
v -0.00202073 0 0.0035 
v -0.00202073 0 -0.0035 
vn 0 0 -1 
vn 0.108119 0 -0.994138 
vn 0.21497 0 -0.976621 
vn 0.319302 0 -0.947653 
vn 0.419889 0 -0.907575 
vn 0.515554 0 -0.856857 
vn 0.605174 0 -0.796093 
vn 0.687699 0 -0.725995 
vn 0.762162 0 -0.647386 
vn 0.827689 0 -0.561187 
vn 0.883512 0 -0.468408 
vn 0.928977 0 -0.370138 
vn 0.96355 0 -0.267528 
vn 0.986827 0 -0.161782 
vn 0.998533 0 -0.0541389 
vn 0.998533 0 0.0541389 
vn 0.986827 0 0.161782 
vn 0.96355 0 0.267528 
vn 0.928977 0 0.370138 
vn 0.883512 0 0.468408 
vn 0.827689 0 0.561187 
vn 0.762162 0 0.647386 
vn 0.687699 0 0.725995 
vn 0.605174 0 0.796093 
vn 0.515554 0 0.856857 
vn 0.419889 0 0.907575 
vn 0.319302 0 0.947653 
vn 0.21497 0 0.976621 
vn 0.108119 0 0.994138 
vn 1.22465e-16 0 1 
vn -0.108119 0 0.994138 
vn -0.21497 0 0.976621 
vn -0.319302 0 0.947653 
vn -0.419889 0 0.907575 
vn -0.515554 0 0.856857 
vn -0.605174 0 0.796093 
vn -0.687699 0 0.725995 
vn -0.762162 0 0.647386 
vn -0.827689 0 0.561187 
vn -0.883512 0 0.468408 
vn -0.928977 0 0.370138 
vn -0.96355 0 0.267528 
vn -0.986827 0 0.161782 
vn -0.998533 0 0.0541389 
vn -0.998533 0 -0.0541389 
vn -0.986827 0 -0.161782 
vn -0.96355 0 -0.267528 
vn -0.928977 0 -0.370138 
vn -0.883512 0 -0.468408 
vn -0.827689 0 -0.561187 
vn -0.762162 0 -0.647386 
vn -0.687699 0 -0.725995 
vn -0.605174 0 -0.796093 
vn -0.515554 0 -0.856857 
vn -0.419889 0 -0.907575 
vn -0.319302 0 -0.947653 
vn -0.21497 0 -0.976621 
vn -0.108119 0 -0.994138 
vn 0 1 0 
vn 0 0 -1 
vn 0.108119 0 -0.994138 
vn 0.21497 0 -0.976621 
vn 0.319302 0 -0.947653 
vn 0.419889 0 -0.907575 
vn 0.515554 0 -0.856857 
vn 0.605174 0 -0.796093 
vn 0.687699 0 -0.725995 
vn 0.762162 0 -0.647386 
vn 0.827689 0 -0.561187 
vn 0.883512 0 -0.468408 
vn 0.928977 0 -0.370138 
vn 0.96355 0 -0.267528 
vn 0.986827 0 -0.161782 
vn 0.998533 0 -0.0541389 
vn 0.998533 0 0.0541389 
vn 0.986827 0 0.161782 
vn 0.96355 0 0.267528 
vn 0.928977 0 0.370138 
vn 0.883512 0 0.468408 
vn 0.827689 0 0.561187 
vn 0.762162 0 0.647386 
vn 0.687699 0 0.725995 
vn 0.605174 0 0.796093 
vn 0.515554 0 0.856857 
vn 0.419889 0 0.907575 
vn 0.319302 0 0.947653 
vn 0.21497 0 0.976621 
vn 0.108119 0 0.994138 
vn 1.22465e-16 0 1 
vn -0.108119 0 0.994138 
vn -0.21497 0 0.976621 
vn -0.319302 0 0.947653 
vn -0.419889 0 0.907575 
vn -0.515554 0 0.856857 
vn -0.605174 0 0.796093 
vn -0.687699 0 0.725995 
vn -0.762162 0 0.647386 
vn -0.827689 0 0.561187 
vn -0.883512 0 0.468408 
vn -0.928977 0 0.370138 
vn -0.96355 0 0.267528 
vn -0.986827 0 0.161782 
vn -0.998533 0 0.0541389 
vn -0.998533 0 -0.0541389 
vn -0.986827 0 -0.161782 
vn -0.96355 0 -0.267528 
vn -0.928977 0 -0.370138 
vn -0.883512 0 -0.468408 
vn -0.827689 0 -0.561187 
vn -0.762162 0 -0.647386 
vn -0.687699 0 -0.725995 
vn -0.605174 0 -0.796093 
vn -0.515554 0 -0.856857 
vn -0.419889 0 -0.907575 
vn -0.319302 0 -0.947653 
vn -0.21497 0 -0.976621 
vn -0.108119 0 -0.994138 
vn 0 1 0 
vn 0 -1 0 
vn -0.866025 0 -0.5 
vn -0.866025 0 0.5 
vn 1.07308e-16 0 1 
vn 0.866025 0 0.5 
vn 0.866025 0 -0.5 
vn 0 0 -1 
usemtl 0.796078_0.823529_0.937255_0.000000_0.000000
o mesh0
f 1//1 2//1 3//2 
f 4//2 3//2 5//3 
f 6//3 5//3 7//4 
f 8//4 7//4 9//5 
f 10//5 9//5 11//6 
f 12//6 11//6 13//7 
f 14//7 13//7 15//8 
f 16//8 15//8 17//9 
f 18//9 17//9 19//10 
f 20//10 19//10 21//11 
f 22//11 21//11 23//12 
f 24//12 23//12 25//13 
f 26//13 25//13 27//14 
f 28//14 27//14 29//15 
f 30//15 29//15 31//16 
f 32//16 31//16 33//17 
f 34//17 33//17 35//18 
f 36//18 35//18 37//19 
f 38//19 37//19 39//20 
f 40//20 39//20 41//21 
f 42//21 41//21 43//22 
f 44//22 43//22 45//23 
f 46//23 45//23 47//24 
f 48//24 47//24 49//25 
f 50//25 49//25 51//26 
f 52//26 51//26 53//27 
f 54//27 53//27 55//28 
f 56//28 55//28 57//29 
f 58//29 57//29 59//30 
f 60//30 59//30 61//31 
f 62//31 61//31 63//32 
f 64//32 63//32 65//33 
f 66//33 65//33 67//34 
f 68//34 67//34 69//35 
f 70//35 69//35 71//36 
f 72//36 71//36 73//37 
f 74//37 73//37 75//38 
f 76//38 75//38 77//39 
f 78//39 77//39 79//40 
f 80//40 79//40 81//41 
f 82//41 81//41 83//42 
f 84//42 83//42 85//43 
f 86//43 85//43 87//44 
f 88//44 87//44 89//45 
f 90//45 89//45 91//46 
f 92//46 91//46 93//47 
f 94//47 93//47 95//48 
f 96//48 95//48 97//49 
f 98//49 97//49 99//50 
f 100//50 99//50 101//51 
f 102//51 101//51 103//52 
f 104//52 103//52 105//53 
f 106//53 105//53 107//54 
f 108//54 107//54 109//55 
f 110//55 109//55 111//56 
f 112//56 111//56 113//57 
f 114//57 113//57 115//58 
f 116//58 115//58 2//1 
f 2//1 1//1 116//58 
f 115//58 116//58 114//57 
f 113//57 114//57 112//56 
f 111//56 112//56 110//55 
f 109//55 110//55 108//54 
f 107//54 108//54 106//53 
f 105//53 106//53 104//52 
f 103//52 104//52 102//51 
f 101//51 102//51 100//50 
f 99//50 100//50 98//49 
f 97//49 98//49 96//48 
f 95//48 96//48 94//47 
f 93//47 94//47 92//46 
f 91//46 92//46 90//45 
f 89//45 90//45 88//44 
f 87//44 88//44 86//43 
f 85//43 86//43 84//42 
f 83//42 84//42 82//41 
f 81//41 82//41 80//40 
f 79//40 80//40 78//39 
f 77//39 78//39 76//38 
f 75//38 76//38 74//37 
f 73//37 74//37 72//36 
f 71//36 72//36 70//35 
f 69//35 70//35 68//34 
f 67//34 68//34 66//33 
f 65//33 66//33 64//32 
f 63//32 64//32 62//31 
f 61//31 62//31 60//30 
f 59//30 60//30 58//29 
f 57//29 58//29 56//28 
f 55//28 56//28 54//27 
f 53//27 54//27 52//26 
f 51//26 52//26 50//25 
f 49//25 50//25 48//24 
f 47//24 48//24 46//23 
f 45//23 46//23 44//22 
f 43//22 44//22 42//21 
f 41//21 42//21 40//20 
f 39//20 40//20 38//19 
f 37//19 38//19 36//18 
f 35//18 36//18 34//17 
f 33//17 34//17 32//16 
f 31//16 32//16 30//15 
f 29//15 30//15 28//14 
f 27//14 28//14 26//13 
f 25//13 26//13 24//12 
f 23//12 24//12 22//11 
f 21//11 22//11 20//10 
f 19//10 20//10 18//9 
f 17//9 18//9 16//8 
f 15//8 16//8 14//7 
f 13//7 14//7 12//6 
f 11//6 12//6 10//5 
f 9//5 10//5 8//4 
f 7//4 8//4 6//3 
f 5//3 6//3 4//2 
f 3//2 4//2 1//1 
o mesh1
f 117//59 42//59 44//59 
f 117//59 118//59 40//59 
f 119//59 50//59 52//59 
f 119//59 120//59 48//59 
f 121//59 44//59 46//59 
f 40//59 42//59 117//59 
f 122//59 6//59 8//59 
f 122//59 123//59 4//59 
f 48//59 50//59 119//59 
f 120//59 124//59 46//59 
f 44//59 121//59 117//59 
f 125//59 38//59 40//59 
f 126//59 14//59 16//59 
f 126//59 127//59 12//59 
f 128//59 8//59 10//59 
f 4//59 6//59 122//59 
f 129//59 54//59 56//59 
f 129//59 130//59 52//59 
f 46//59 48//59 120//59 
f 40//59 118//59 125//59 
f 131//59 132//59 32//59 
f 133//59 30//59 32//59 
f 134//59 28//59 30//59 
f 134//59 135//59 26//59 
f 136//59 137//59 16//59 
f 12//59 14//59 126//59 
f 8//59 128//59 122//59 
f 138//59 1//59 4//59 
f 139//59 116//59 1//59 
f 139//59 140//59 114//59 
f 52//59 54//59 129//59 
f 46//59 124//59 121//59 
f 141//59 36//59 38//59 
f 141//59 131//59 34//59 
f 32//59 132//59 133//59 
f 26//59 28//59 134//59 
f 135//59 142//59 24//59 
f 142//59 143//59 22//59 
f 144//59 20//59 22//59 
f 144//59 136//59 18//59 
f 16//59 137//59 126//59 
f 127//59 145//59 10//59 
f 4//59 123//59 138//59 
f 114//59 116//59 139//59 
f 146//59 112//59 114//59 
f 147//59 110//59 112//59 
f 148//59 108//59 110//59 
f 149//59 106//59 108//59 
f 150//59 94//59 96//59 
f 150//59 151//59 92//59 
f 52//59 130//59 119//59 
f 34//59 36//59 141//59 
f 30//59 133//59 134//59 
f 22//59 24//59 142//59 
f 18//59 20//59 144//59 
f 10//59 12//59 127//59 
f 1//59 138//59 139//59 
f 112//59 146//59 147//59 
f 108//59 148//59 149//59 
f 152//59 104//59 106//59 
f 153//59 102//59 104//59 
f 154//59 100//59 102//59 
f 155//59 98//59 100//59 
f 156//59 96//59 98//59 
f 92//59 94//59 150//59 
f 151//59 157//59 90//59 
f 38//59 125//59 141//59 
f 24//59 26//59 135//59 
f 16//59 18//59 136//59 
f 114//59 140//59 146//59 
f 106//59 149//59 152//59 
f 102//59 153//59 154//59 
f 98//59 155//59 156//59 
f 90//59 92//59 151//59 
f 158//59 84//59 86//59 
f 158//59 159//59 82//59 
f 160//59 80//59 82//59 
f 160//59 161//59 78//59 
f 162//59 76//59 78//59 
f 162//59 163//59 74//59 
f 164//59 72//59 74//59 
f 164//59 165//59 70//59 
f 166//59 68//59 70//59 
f 166//59 167//59 66//59 
f 32//59 34//59 131//59 
f 10//59 145//59 128//59 
f 104//59 152//59 153//59 
f 96//59 156//59 150//59 
f 168//59 86//59 88//59 
f 82//59 84//59 158//59 
f 78//59 80//59 160//59 
f 74//59 76//59 162//59 
f 70//59 72//59 164//59 
f 66//59 68//59 166//59 
f 169//59 64//59 66//59 
f 169//59 170//59 62//59 
f 22//59 143//59 144//59 
f 100//59 154//59 155//59 
f 157//59 171//59 88//59 
f 86//59 168//59 158//59 
f 78//59 161//59 162//59 
f 70//59 165//59 166//59 
f 62//59 64//59 169//59 
f 170//59 172//59 60//59 
f 110//59 147//59 148//59 
f 88//59 171//59 168//59 
f 74//59 163//59 164//59 
f 60//59 62//59 170//59 
f 173//59 58//59 60//59 
f 173//59 174//59 56//59 
f 88//59 90//59 157//59 
f 66//59 167//59 169//59 
f 56//59 58//59 173//59 
f 82//59 159//59 160//59 
f 56//59 174//59 129//59 
f 60//59 172//59 173//59 
o mesh2
f 175//60 138//60 123//61 
f 176//61 123//61 122//62 
f 177//62 122//62 128//63 
f 178//63 128//63 145//64 
f 179//64 145//64 127//65 
f 180//65 127//65 126//66 
f 181//66 126//66 137//67 
f 182//67 137//67 136//68 
f 183//68 136//68 144//69 
f 184//69 144//69 143//70 
f 185//70 143//70 142//71 
f 186//71 142//71 135//72 
f 187//72 135//72 134//73 
f 188//73 134//73 133//74 
f 189//74 133//74 132//75 
f 190//75 132//75 131//76 
f 191//76 131//76 141//77 
f 192//77 141//77 125//78 
f 193//78 125//78 118//79 
f 194//79 118//79 117//80 
f 195//80 117//80 121//81 
f 196//81 121//81 124//82 
f 197//82 124//82 120//83 
f 198//83 120//83 119//84 
f 199//84 119//84 130//85 
f 200//85 130//85 129//86 
f 201//86 129//86 174//87 
f 202//87 174//87 173//88 
f 203//88 173//88 172//89 
f 204//89 172//89 170//90 
f 205//90 170//90 169//91 
f 206//91 169//91 167//92 
f 207//92 167//92 166//93 
f 208//93 166//93 165//94 
f 209//94 165//94 164//95 
f 210//95 164//95 163//96 
f 211//96 163//96 162//97 
f 212//97 162//97 161//98 
f 213//98 161//98 160//99 
f 214//99 160//99 159//100 
f 215//100 159//100 158//101 
f 216//101 158//101 168//102 
f 217//102 168//102 171//103 
f 218//103 171//103 157//104 
f 219//104 157//104 151//105 
f 220//105 151//105 150//106 
f 221//106 150//106 156//107 
f 222//107 156//107 155//108 
f 223//108 155//108 154//109 
f 224//109 154//109 153//110 
f 225//110 153//110 152//111 
f 226//111 152//111 149//112 
f 227//112 149//112 148//113 
f 228//113 148//113 147//114 
f 229//114 147//114 146//115 
f 230//115 146//115 140//116 
f 231//116 140//116 139//117 
f 232//117 139//117 138//60 
f 138//60 175//60 232//117 
f 139//117 232//117 231//116 
f 140//116 231//116 230//115 
f 146//115 230//115 229//114 
f 147//114 229//114 228//113 
f 148//113 228//113 227//112 
f 149//112 227//112 226//111 
f 152//111 226//111 225//110 
f 153//110 225//110 224//109 
f 154//109 224//109 223//108 
f 155//108 223//108 222//107 
f 156//107 222//107 221//106 
f 150//106 221//106 220//105 
f 151//105 220//105 219//104 
f 157//104 219//104 218//103 
f 171//103 218//103 217//102 
f 168//102 217//102 216//101 
f 158//101 216//101 215//100 
f 159//100 215//100 214//99 
f 160//99 214//99 213//98 
f 161//98 213//98 212//97 
f 162//97 212//97 211//96 
f 163//96 211//96 210//95 
f 164//95 210//95 209//94 
f 165//94 209//94 208//93 
f 166//93 208//93 207//92 
f 167//92 207//92 206//91 
f 169//91 206//91 205//90 
f 170//90 205//90 204//89 
f 172//89 204//89 203//88 
f 173//88 203//88 202//87 
f 174//87 202//87 201//86 
f 129//86 201//86 200//85 
f 130//85 200//85 199//84 
f 119//84 199//84 198//83 
f 120//83 198//83 197//82 
f 124//82 197//82 196//81 
f 121//81 196//81 195//80 
f 117//80 195//80 194//79 
f 118//79 194//79 193//78 
f 125//78 193//78 192//77 
f 141//77 192//77 191//76 
f 131//76 191//76 190//75 
f 132//75 190//75 189//74 
f 133//74 189//74 188//73 
f 134//73 188//73 187//72 
f 135//72 187//72 186//71 
f 142//71 186//71 185//70 
f 143//70 185//70 184//69 
f 144//69 184//69 183//68 
f 136//68 183//68 182//67 
f 137//67 182//67 181//66 
f 126//66 181//66 180//65 
f 127//65 180//65 179//64 
f 145//64 179//64 178//63 
f 128//63 178//63 177//62 
f 122//62 177//62 176//61 
f 123//61 176//61 175//60 
o mesh3
f 233//118 47//118 45//118 
f 234//118 235//118 17//118 
f 235//118 233//118 35//118 
f 233//118 39//118 37//118 
f 45//118 43//118 233//118 
f 235//118 19//118 17//118 
f 235//118 27//118 25//118 
f 236//118 3//118 2//118 
f 35//118 33//118 235//118 
f 233//118 41//118 39//118 
f 233//118 49//118 47//118 
f 17//118 15//118 234//118 
f 235//118 23//118 21//118 
f 235//118 29//118 27//118 
f 236//118 115//118 113//118 
f 236//118 5//118 3//118 
f 234//118 7//118 5//118 
f 234//118 11//118 9//118 
f 33//118 31//118 235//118 
f 43//118 41//118 233//118 
f 15//118 13//118 234//118 
f 25//118 23//118 235//118 
f 2//118 115//118 236//118 
f 9//118 7//118 234//118 
f 236//118 97//118 95//118 
f 236//118 101//118 99//118 
f 236//118 105//118 103//118 
f 237//118 75//118 73//118 
f 37//118 35//118 233//118 
f 21//118 19//118 235//118 
f 236//118 111//118 109//118 
f 5//118 236//118 234//118 
f 238//118 236//118 93//118 
f 99//118 97//118 236//118 
f 236//118 107//118 105//118 
f 73//118 71//118 237//118 
f 237//118 79//118 77//118 
f 237//118 61//118 59//118 
f 13//118 11//118 234//118 
f 113//118 111//118 236//118 
f 93//118 91//118 238//118 
f 103//118 101//118 236//118 
f 77//118 75//118 237//118 
f 237//118 83//118 81//118 
f 238//118 85//118 83//118 
f 238//118 89//118 87//118 
f 233//118 237//118 55//118 
f 237//118 63//118 61//118 
f 237//118 67//118 65//118 
f 109//118 107//118 236//118 
f 95//118 93//118 236//118 
f 81//118 79//118 237//118 
f 87//118 85//118 238//118 
f 233//118 53//118 51//118 
f 237//118 57//118 55//118 
f 65//118 63//118 237//118 
f 91//118 89//118 238//118 
f 83//118 237//118 238//118 
f 55//118 53//118 233//118 
f 237//118 69//118 67//118 
f 71//118 69//118 237//118 
f 59//118 57//118 237//118 
f 51//118 49//118 233//118 
f 31//118 29//118 235//118 
o mesh4
f 239//119 184//119 185//119 
f 240//119 195//119 196//119 
f 240//119 241//119 194//119 
f 242//119 214//119 215//119 
f 243//119 213//119 214//119 
f 185//119 241//119 239//119 
f 239//119 182//119 183//119 
f 196//119 197//119 240//119 
f 241//119 193//119 194//119 
f 243//119 240//119 204//119 
f 240//119 202//119 203//119 
f 240//119 200//119 201//119 
f 242//119 217//119 218//119 
f 214//119 242//119 243//119 
f 244//119 226//119 227//119 
f 244//119 242//119 223//119 
f 242//119 221//119 222//119 
f 244//119 232//119 175//119 
f 241//119 186//119 187//119 
f 183//119 184//119 239//119 
f 239//119 180//119 181//119 
f 197//119 198//119 240//119 
f 241//119 192//119 193//119 
f 241//119 190//119 191//119 
f 204//119 205//119 243//119 
f 201//119 202//119 240//119 
f 242//119 216//119 217//119 
f 243//119 212//119 213//119 
f 243//119 209//119 210//119 
f 244//119 225//119 226//119 
f 223//119 224//119 244//119 
f 242//119 220//119 221//119 
f 239//119 175//119 176//119 
f 244//119 231//119 232//119 
f 244//119 229//119 230//119 
f 187//119 188//119 241//119 
f 181//119 182//119 239//119 
f 194//119 195//119 240//119 
f 241//119 189//119 190//119 
f 243//119 206//119 207//119 
f 203//119 204//119 240//119 
f 215//119 216//119 242//119 
f 210//119 211//119 243//119 
f 224//119 225//119 244//119 
f 242//119 219//119 220//119 
f 239//119 177//119 178//119 
f 175//119 239//119 244//119 
f 244//119 228//119 229//119 
f 185//119 186//119 241//119 
f 191//119 192//119 241//119 
f 207//119 208//119 243//119 
f 240//119 199//119 200//119 
f 211//119 212//119 243//119 
f 222//119 223//119 242//119 
f 178//119 179//119 239//119 
f 230//119 231//119 244//119 
f 198//119 199//119 240//119 
f 205//119 206//119 243//119 
f 227//119 228//119 244//119 
f 176//119 177//119 239//119 
f 208//119 209//119 243//119 
f 179//119 180//119 239//119 
f 218//119 219//119 242//119 
f 188//119 189//119 241//119 
o mesh5
f 235//120 241//120 240//120 
f 240//120 233//120 235//120 
o mesh6
f 234//121 239//121 241//121 
f 241//121 235//121 234//121 
o mesh7
f 236//122 244//122 239//122 
f 239//122 234//122 236//122 
o mesh8
f 238//123 242//123 244//123 
f 244//123 236//123 238//123 
o mesh9
f 237//124 243//124 242//124 
f 242//124 238//124 237//124 
o mesh10
f 233//125 240//125 243//125 
f 243//125 237//125 233//125 
