# OBJ generated by ONSHAPE BY PTC INC, 1.212 Units = meters
mtllib MCP Splay Free Spacer.mtl
g Part 1
v 0.00308653 0.00455229 0.001 
v 0.00252534 0.0037246 0.001 
v 0.00291324 0.00342973 0.001 
v 0.00257625 0.00485932 0.001 
v 0.00210784 0.0039758 0.001 
v 0.00471271 0.00283555 0.001 
v 0.00385586 0.00231999 0.001 
v 0.00408409 0.0018895 0.001 
v 0.00437851 0.00332846 0.001 
v 0.00358242 0.00272328 0.001 
v 0.00356062 0.00419189 0.001 
v 0.00326698 0.00309465 0.001 
v -0.00537141 0.00118234 0.001 
v -0.00439479 0.000967367 0.001 
v -0.00426444 0.00143686 0.001 
v -0.00546776 0.000594655 0.001 
v -0.00447362 0.000486536 0.001 
v 0.00399298 0.00378235 0.001 
v 0.00203576 0.00510937 0.001 
v 0.00166562 0.0041804 0.001 
v -0.00437851 0.00332846 0.001 
v -0.00358242 0.00272328 0.001 
v -0.00326698 0.00309465 0.001 
v -0.00471271 0.00283555 0.001 
v -0.00385586 0.00231999 0.001 
v -0.00521209 0.00175616 0.001 
v -0.00408409 0.0018895 0.001 
v 0.00521209 0.00175616 0.001 
v 0.00426444 0.00143686 0.001 
v 0.00439479 0.000967367 0.001 
v 0.00499166 0.00230939 0.001 
v 0.000889801 0.00542755 0.001 
v 0.000297764 0.00549193 0.001 
v 0.000243625 0.0044934 0.001 
v -0.000297764 0.00549193 0.001 
v -0.000243625 0.0044934 0.001 
v -0.000889801 0.00542755 0.001 
v -0.000728019 0.00444072 0.001 
v -0.00147141 0.00529952 0.001 
v -0.00120388 0.00433597 0.001 
v -0.00356062 0.00419189 0.001 
v -0.00399298 0.00378235 0.001 
v -0.0055 0 0.001 
v -0.0045 0 0.001 
v -0.00546776 -0.000594655 0.001 
v -0.00447362 -0.000486536 0.001 
v -0.00537141 -0.00118234 0.001 
v -0.00439479 -0.000967367 0.001 
v 0.00147141 0.00529952 0.001 
v 0.00120388 0.00433597 0.001 
v 0.000728019 0.00444072 0.001 
v -0.00203576 0.00510937 0.001 
v -0.00166562 0.0041804 0.001 
v -0.00257625 0.00485932 0.001 
v -0.00210784 0.0039758 0.001 
v -0.00308653 0.00455229 0.001 
v -0.00252534 0.0037246 0.001 
v -0.00291324 0.00342973 0.001 
v -0.00499166 0.00230939 0.001 
v -0.00521209 -0.00175616 0.001 
v -0.00426444 -0.00143686 0.001 
v -0.00499166 -0.00230939 0.001 
v -0.00408409 -0.0018895 0.001 
v -0.00471271 -0.00283555 0.001 
v -0.00385586 -0.00231999 0.001 
v -0.00437851 -0.00332846 0.001 
v -0.00358242 -0.00272328 0.001 
v -0.00147141 -0.00529952 0.001 
v -0.00120388 -0.00433597 0.001 
v -0.00166562 -0.0041804 0.001 
v -0.000889801 -0.00542755 0.001 
v -0.000728019 -0.00444072 0.001 
v -0.00399298 -0.00378235 0.001 
v -0.00326698 -0.00309465 0.001 
v -0.00356062 -0.00419189 0.001 
v -0.00291324 -0.00342973 0.001 
v -0.00308653 -0.00455229 0.001 
v -0.00252534 -0.0037246 0.001 
v -0.00257625 -0.00485932 0.001 
v -0.00210784 -0.0039758 0.001 
v -0.00203576 -0.00510937 0.001 
v -0.000297764 -0.00549193 0.001 
v -0.000243625 -0.0044934 0.001 
v 0.00147141 -0.00529952 0.001 
v 0.00120388 -0.00433597 0.001 
v 0.000728019 -0.00444072 0.001 
v 0.00203576 -0.00510937 0.001 
v 0.00166562 -0.0041804 0.001 
v 0.00257625 -0.00485932 0.001 
v 0.00210784 -0.0039758 0.001 
v 0.00308653 -0.00455229 0.001 
v 0.00252534 -0.0037246 0.001 
v 0.00356062 -0.00419189 0.001 
v 0.00291324 -0.00342973 0.001 
v 0.00399298 -0.00378235 0.001 
v 0.00326698 -0.00309465 0.001 
v 0.00437851 -0.00332846 0.001 
v 0.00358242 -0.00272328 0.001 
v 0.00471271 -0.00283555 0.001 
v 0.00385586 -0.00231999 0.001 
v 0.00499166 -0.00230939 0.001 
v 0.00408409 -0.0018895 0.001 
v 0.00521209 -0.00175616 0.001 
v 0.00426444 -0.00143686 0.001 
v 0.000889801 -0.00542755 0.001 
v 0.000243625 -0.0044934 0.001 
v 0.00537141 -0.00118234 0.001 
v 0.00439479 -0.000967367 0.001 
v 0.00546776 -0.000594655 0.001 
v 0.00447362 -0.000486536 0.001 
v 0.000297764 -0.00549193 0.001 
v 0.0055 2.02067e-18 0.001 
v 0.0045 5.51091e-19 0.001 
v 0.00546776 0.000594655 0.001 
v 0.00447362 0.000486536 0.001 
v 0.00537141 0.00118234 0.001 
v -0.0055 0 0 
v -0.00546776 0.000594655 0 
v -0.00537141 0.00118234 0 
v -0.00521209 0.00175616 0 
v -0.00499166 0.00230939 0 
v -0.00471271 0.00283555 0 
v -0.00437851 0.00332846 0 
v -0.00399298 0.00378235 0 
v -0.00356062 0.00419189 0 
v -0.00308653 0.00455229 0 
v -0.00257625 0.00485932 0 
v -0.00203576 0.00510937 0 
v -0.00147141 0.00529952 0 
v -0.000889801 0.00542755 0 
v -0.000297764 0.00549193 0 
v 0.000297764 0.00549193 0 
v 0.000889801 0.00542755 0 
v 0.00147141 0.00529952 0 
v 0.00203576 0.00510937 0 
v 0.00257625 0.00485932 0 
v 0.00308653 0.00455229 0 
v 0.00356062 0.00419189 0 
v 0.00399298 0.00378235 0 
v 0.00437851 0.00332846 0 
v 0.00471271 0.00283555 0 
v 0.00499166 0.00230939 0 
v 0.00521209 0.00175616 0 
v 0.00537141 0.00118234 0 
v 0.00546776 0.000594655 0 
v 0.0055 6.73556e-19 0 
v 0.00546776 -0.000594655 0 
v 0.00537141 -0.00118234 0 
v 0.00521209 -0.00175616 0 
v 0.00499166 -0.00230939 0 
v 0.00471271 -0.00283555 0 
v 0.00437851 -0.00332846 0 
v 0.00399298 -0.00378235 0 
v 0.00356062 -0.00419189 0 
v 0.00308653 -0.00455229 0 
v 0.00257625 -0.00485932 0 
v 0.00203576 -0.00510937 0 
v 0.00147141 -0.00529952 0 
v 0.000889801 -0.00542755 0 
v 0.000297764 -0.00549193 0 
v -0.000297764 -0.00549193 0 
v -0.000889801 -0.00542755 0 
v -0.00147141 -0.00529952 0 
v -0.00203576 -0.00510937 0 
v -0.00257625 -0.00485932 0 
v -0.00308653 -0.00455229 0 
v -0.00356062 -0.00419189 0 
v -0.00399298 -0.00378235 0 
v -0.00437851 -0.00332846 0 
v -0.00471271 -0.00283555 0 
v -0.00499166 -0.00230939 0 
v -0.00521209 -0.00175616 0 
v -0.00537141 -0.00118234 0 
v -0.00546776 -0.000594655 0 
v -0.00358242 0.00272328 0 
v -0.00326698 0.00309465 0 
v -0.00439479 0.000967367 0 
v -0.00447362 0.000486536 0 
v -0.00426444 0.00143686 0 
v -0.00385586 0.00231999 0 
v -0.00166562 0.0041804 0 
v -0.00210784 0.0039758 0 
v -0.00120388 0.00433597 0 
v -0.000728019 0.00444072 0 
v -0.000243625 0.0044934 0 
v -0.000728019 -0.00444072 0 
v -0.000243625 -0.0044934 0 
v -0.00120388 -0.00433597 0 
v -0.00408409 0.0018895 0 
v -0.00291324 0.00342973 0 
v -0.00252534 0.0037246 0 
v -0.00166562 -0.0041804 0 
v -0.00291324 -0.00342973 0 
v -0.00326698 -0.00309465 0 
v -0.0045 0 0 
v 0.000243625 0.0044934 0 
v 0.00252534 0.0037246 0 
v 0.00210784 0.0039758 0 
v 0.00291324 0.00342973 0 
v 0.00439479 -0.000967367 0 
v 0.00447362 -0.000486536 0 
v 0.00426444 -0.00143686 0 
v 0.00120388 -0.00433597 0 
v 0.00166562 -0.0041804 0 
v 0.000728019 -0.00444072 0 
v -0.00210784 -0.0039758 0 
v -0.00358242 -0.00272328 0 
v -0.00385586 -0.00231999 0 
v -0.00408409 -0.0018895 0 
v 0.000728019 0.00444072 0 
v 0.00326698 0.00309465 0 
v 0.00385586 0.00231999 0 
v 0.00358242 0.00272328 0 
v 0.00408409 0.0018895 0 
v 0.00447362 0.000486536 0 
v 0.00439479 0.000967367 0 
v 0.0045 1.65327e-18 0 
v 0.00408409 -0.0018895 0 
v 0.00385586 -0.00231999 0 
v 0.00358242 -0.00272328 0 
v 0.00326698 -0.00309465 0 
v 0.000243625 -0.0044934 0 
v -0.00252534 -0.0037246 0 
v 0.00120388 0.00433597 0 
v 0.00166562 0.0041804 0 
v 0.00291324 -0.00342973 0 
v 0.00252534 -0.0037246 0 
v 0.00210784 -0.0039758 0 
v -0.00426444 -0.00143686 0 
v -0.00439479 -0.000967367 0 
v -0.00447362 -0.000486536 0 
v 0.00426444 0.00143686 0 
vn 0 0 1 
vn -1 0 0 
vn -0.994138 0.108119 0 
vn -0.976621 0.21497 0 
vn -0.947653 0.319302 0 
vn -0.907575 0.419889 0 
vn -0.856857 0.515554 0 
vn -0.796093 0.605174 0 
vn -0.725995 0.687699 0 
vn -0.647386 0.762162 0 
vn -0.561187 0.827689 0 
vn -0.468408 0.883512 0 
vn -0.370138 0.928977 0 
vn -0.267528 0.96355 0 
vn -0.161782 0.986827 0 
vn -0.0541389 0.998533 0 
vn 0.0541389 0.998533 0 
vn 0.161782 0.986827 0 
vn 0.267528 0.96355 0 
vn 0.370138 0.928977 0 
vn 0.468408 0.883512 0 
vn 0.561187 0.827689 0 
vn 0.647386 0.762162 0 
vn 0.725995 0.687699 0 
vn 0.796093 0.605174 0 
vn 0.856857 0.515554 0 
vn 0.907575 0.419889 0 
vn 0.947653 0.319302 0 
vn 0.976621 0.21497 0 
vn 0.994138 0.108119 0 
vn 1 1.22465e-16 0 
vn 0.994138 -0.108119 0 
vn 0.976621 -0.21497 0 
vn 0.947653 -0.319302 0 
vn 0.907575 -0.419889 0 
vn 0.856857 -0.515554 0 
vn 0.796093 -0.605174 0 
vn 0.725995 -0.687699 0 
vn 0.647386 -0.762162 0 
vn 0.561187 -0.827689 0 
vn 0.468408 -0.883512 0 
vn 0.370138 -0.928977 0 
vn 0.267528 -0.96355 0 
vn 0.161782 -0.986827 0 
vn 0.0541389 -0.998533 0 
vn -0.0541389 -0.998533 0 
vn -0.161782 -0.986827 0 
vn -0.267528 -0.96355 0 
vn -0.370138 -0.928977 0 
vn -0.468408 -0.883512 0 
vn -0.561187 -0.827689 0 
vn -0.647386 -0.762162 0 
vn -0.725995 -0.687699 0 
vn -0.796093 -0.605174 0 
vn -0.856857 -0.515554 0 
vn -0.907575 -0.419889 0 
vn -0.947653 -0.319302 0 
vn -0.976621 -0.21497 0 
vn -0.994138 -0.108119 0 
vn 0 0 -1 
vn 0.994138 0.108119 0 
vn 1 2.44929e-16 0 
vn 0.976621 0.21497 0 
vn 0.994138 0.108119 0 
vn 0.947653 0.319302 0 
vn 0.976621 0.21497 0 
vn 0.907575 0.419889 0 
vn 0.947653 0.319302 0 
vn 0.856857 0.515554 0 
vn 0.907575 0.419889 0 
vn 0.796093 0.605174 0 
vn 0.856857 0.515554 0 
vn 0.725995 0.687699 0 
vn 0.796093 0.605174 0 
vn 0.647386 0.762162 0 
vn 0.725995 0.687699 0 
vn 0.561187 0.827689 0 
vn 0.647386 0.762162 0 
vn 0.468408 0.883512 0 
vn 0.561187 0.827689 0 
vn 0.370138 0.928977 0 
vn 0.468408 0.883512 0 
vn 0.267528 0.96355 0 
vn 0.370138 0.928977 0 
vn 0.161782 0.986827 0 
vn 0.267528 0.96355 0 
vn 0.0541389 0.998533 0 
vn 0.161782 0.986827 0 
vn -0.0541389 0.998533 0 
vn 0.0541389 0.998533 0 
vn -0.161782 0.986827 0 
vn -0.0541389 0.998533 0 
vn -0.267528 0.96355 0 
vn -0.161782 0.986827 0 
vn -0.370138 0.928977 0 
vn -0.267528 0.96355 0 
vn -0.468408 0.883512 0 
vn -0.370138 0.928977 0 
vn -0.561187 0.827689 0 
vn -0.468408 0.883512 0 
vn -0.647386 0.762162 0 
vn -0.561187 0.827689 0 
vn -0.725995 0.687699 0 
vn -0.647386 0.762162 0 
vn -0.796093 0.605174 0 
vn -0.725995 0.687699 0 
vn -0.856857 0.515554 0 
vn -0.796093 0.605174 0 
vn -0.907575 0.419889 0 
vn -0.856857 0.515554 0 
vn -0.947653 0.319302 0 
vn -0.907575 0.419889 0 
vn -0.976621 0.21497 0 
vn -0.947653 0.319302 0 
vn -0.994138 0.108119 0 
vn -0.976621 0.21497 0 
vn -1 -1.22465e-16 0 
vn -0.994138 0.108119 0 
vn -0.994138 -0.108119 0 
vn -1 -1.22465e-16 0 
vn -0.976621 -0.21497 0 
vn -0.994138 -0.108119 0 
vn -0.947653 -0.319302 0 
vn -0.976621 -0.21497 0 
vn -0.907575 -0.419889 0 
vn -0.947653 -0.319302 0 
vn -0.856857 -0.515554 0 
vn -0.907575 -0.419889 0 
vn -0.796093 -0.605174 0 
vn -0.856857 -0.515554 0 
vn -0.725995 -0.687699 0 
vn -0.796093 -0.605174 0 
vn -0.647386 -0.762162 0 
vn -0.725995 -0.687699 0 
vn -0.561187 -0.827689 0 
vn -0.647386 -0.762162 0 
vn -0.468408 -0.883512 0 
vn -0.561187 -0.827689 0 
vn -0.370138 -0.928977 0 
vn -0.468408 -0.883512 0 
vn -0.267528 -0.96355 0 
vn -0.370138 -0.928977 0 
vn -0.161782 -0.986827 0 
vn -0.267528 -0.96355 0 
vn -0.0541389 -0.998533 0 
vn -0.161782 -0.986827 0 
vn 0.0541389 -0.998533 0 
vn -0.0541389 -0.998533 0 
vn 0.161782 -0.986827 0 
vn 0.0541389 -0.998533 0 
vn 0.267528 -0.96355 0 
vn 0.161782 -0.986827 0 
vn 0.370138 -0.928977 0 
vn 0.267528 -0.96355 0 
vn 0.468408 -0.883512 0 
vn 0.370138 -0.928977 0 
vn 0.561187 -0.827689 0 
vn 0.468408 -0.883512 0 
vn 0.647386 -0.762162 0 
vn 0.561187 -0.827689 0 
vn 0.725995 -0.687699 0 
vn 0.647386 -0.762162 0 
vn 0.796093 -0.605174 0 
vn 0.725995 -0.687699 0 
vn 0.856857 -0.515554 0 
vn 0.796093 -0.605174 0 
vn 0.907575 -0.419889 0 
vn 0.856857 -0.515554 0 
vn 0.947653 -0.319302 0 
vn 0.907575 -0.419889 0 
vn 0.976621 -0.21497 0 
vn 0.947653 -0.319302 0 
vn 0.994138 -0.108119 0 
vn 0.976621 -0.21497 0 
usemtl 0.796078_0.823529_0.937255_0.000000_0.000000
o mesh0
f 1//1 2//1 3//1 
f 1//1 4//1 5//1 
f 6//1 7//1 8//1 
f 6//1 9//1 10//1 
f 11//1 3//1 12//1 
f 5//1 2//1 1//1 
f 13//1 14//1 15//1 
f 13//1 16//1 17//1 
f 10//1 7//1 6//1 
f 9//1 18//1 12//1 
f 3//1 11//1 1//1 
f 19//1 20//1 5//1 
f 21//1 22//1 23//1 
f 21//1 24//1 25//1 
f 26//1 15//1 27//1 
f 17//1 14//1 13//1 
f 28//1 29//1 30//1 
f 28//1 31//1 8//1 
f 12//1 10//1 9//1 
f 5//1 4//1 19//1 
f 32//1 33//1 34//1 
f 35//1 36//1 34//1 
f 37//1 38//1 36//1 
f 37//1 39//1 40//1 
f 41//1 42//1 23//1 
f 25//1 22//1 21//1 
f 15//1 26//1 13//1 
f 16//1 43//1 44//1 
f 45//1 46//1 44//1 
f 45//1 47//1 48//1 
f 8//1 29//1 28//1 
f 12//1 18//1 11//1 
f 49//1 50//1 20//1 
f 49//1 32//1 51//1 
f 34//1 33//1 35//1 
f 40//1 38//1 37//1 
f 39//1 52//1 53//1 
f 52//1 54//1 55//1 
f 56//1 57//1 55//1 
f 56//1 41//1 58//1 
f 23//1 42//1 21//1 
f 24//1 59//1 27//1 
f 44//1 17//1 16//1 
f 48//1 46//1 45//1 
f 60//1 61//1 48//1 
f 62//1 63//1 61//1 
f 64//1 65//1 63//1 
f 66//1 67//1 65//1 
f 68//1 69//1 70//1 
f 68//1 71//1 72//1 
f 8//1 31//1 6//1 
f 51//1 50//1 49//1 
f 36//1 35//1 37//1 
f 55//1 53//1 52//1 
f 58//1 57//1 56//1 
f 27//1 25//1 24//1 
f 44//1 43//1 45//1 
f 61//1 60//1 62//1 
f 65//1 64//1 66//1 
f 73//1 74//1 67//1 
f 75//1 76//1 74//1 
f 77//1 78//1 76//1 
f 79//1 80//1 78//1 
f 81//1 70//1 80//1 
f 72//1 69//1 68//1 
f 71//1 82//1 83//1 
f 20//1 19//1 49//1 
f 53//1 40//1 39//1 
f 23//1 58//1 41//1 
f 48//1 47//1 60//1 
f 67//1 66//1 73//1 
f 76//1 75//1 77//1 
f 80//1 79//1 81//1 
f 83//1 72//1 71//1 
f 84//1 85//1 86//1 
f 84//1 87//1 88//1 
f 89//1 90//1 88//1 
f 89//1 91//1 92//1 
f 93//1 94//1 92//1 
f 93//1 95//1 96//1 
f 97//1 98//1 96//1 
f 97//1 99//1 100//1 
f 101//1 102//1 100//1 
f 101//1 103//1 104//1 
f 34//1 51//1 32//1 
f 27//1 59//1 26//1 
f 74//1 73//1 75//1 
f 70//1 81//1 68//1 
f 105//1 86//1 106//1 
f 88//1 85//1 84//1 
f 92//1 90//1 89//1 
f 96//1 94//1 93//1 
f 100//1 98//1 97//1 
f 104//1 102//1 101//1 
f 107//1 108//1 104//1 
f 107//1 109//1 110//1 
f 55//1 54//1 56//1 
f 78//1 77//1 79//1 
f 82//1 111//1 106//1 
f 86//1 105//1 84//1 
f 92//1 91//1 93//1 
f 100//1 99//1 101//1 
f 110//1 108//1 107//1 
f 112//1 113//1 110//1 
f 63//1 62//1 64//1 
f 106//1 111//1 105//1 
f 96//1 95//1 97//1 
f 110//1 109//1 112//1 
f 114//1 115//1 113//1 
f 114//1 116//1 30//1 
f 106//1 83//1 82//1 
f 104//1 103//1 107//1 
f 30//1 115//1 114//1 
f 88//1 87//1 89//1 
f 30//1 116//1 28//1 
f 113//1 112//1 114//1 
o mesh1
f 117//2 43//2 16//3 
f 118//3 16//3 13//4 
f 119//4 13//4 26//5 
f 120//5 26//5 59//6 
f 121//6 59//6 24//7 
f 122//7 24//7 21//8 
f 123//8 21//8 42//9 
f 124//9 42//9 41//10 
f 125//10 41//10 56//11 
f 126//11 56//11 54//12 
f 127//12 54//12 52//13 
f 128//13 52//13 39//14 
f 129//14 39//14 37//15 
f 130//15 37//15 35//16 
f 131//16 35//16 33//17 
f 132//17 33//17 32//18 
f 133//18 32//18 49//19 
f 134//19 49//19 19//20 
f 135//20 19//20 4//21 
f 136//21 4//21 1//22 
f 137//22 1//22 11//23 
f 138//23 11//23 18//24 
f 139//24 18//24 9//25 
f 140//25 9//25 6//26 
f 141//26 6//26 31//27 
f 142//27 31//27 28//28 
f 143//28 28//28 116//29 
f 144//29 116//29 114//30 
f 145//30 114//30 112//31 
f 146//31 112//31 109//32 
f 147//32 109//32 107//33 
f 148//33 107//33 103//34 
f 149//34 103//34 101//35 
f 150//35 101//35 99//36 
f 151//36 99//36 97//37 
f 152//37 97//37 95//38 
f 153//38 95//38 93//39 
f 154//39 93//39 91//40 
f 155//40 91//40 89//41 
f 156//41 89//41 87//42 
f 157//42 87//42 84//43 
f 158//43 84//43 105//44 
f 159//44 105//44 111//45 
f 160//45 111//45 82//46 
f 161//46 82//46 71//47 
f 162//47 71//47 68//48 
f 163//48 68//48 81//49 
f 164//49 81//49 79//50 
f 165//50 79//50 77//51 
f 166//51 77//51 75//52 
f 167//52 75//52 73//53 
f 168//53 73//53 66//54 
f 169//54 66//54 64//55 
f 170//55 64//55 62//56 
f 171//56 62//56 60//57 
f 172//57 60//57 47//58 
f 173//58 47//58 45//59 
f 174//59 45//59 43//2 
f 43//2 117//2 174//59 
f 45//59 174//59 173//58 
f 47//58 173//58 172//57 
f 60//57 172//57 171//56 
f 62//56 171//56 170//55 
f 64//55 170//55 169//54 
f 66//54 169//54 168//53 
f 73//53 168//53 167//52 
f 75//52 167//52 166//51 
f 77//51 166//51 165//50 
f 79//50 165//50 164//49 
f 81//49 164//49 163//48 
f 68//48 163//48 162//47 
f 71//47 162//47 161//46 
f 82//46 161//46 160//45 
f 111//45 160//45 159//44 
f 105//44 159//44 158//43 
f 84//43 158//43 157//42 
f 87//42 157//42 156//41 
f 89//41 156//41 155//40 
f 91//40 155//40 154//39 
f 93//39 154//39 153//38 
f 95//38 153//38 152//37 
f 97//37 152//37 151//36 
f 99//36 151//36 150//35 
f 101//35 150//35 149//34 
f 103//34 149//34 148//33 
f 107//33 148//33 147//32 
f 109//32 147//32 146//31 
f 112//31 146//31 145//30 
f 114//30 145//30 144//29 
f 116//29 144//29 143//28 
f 28//28 143//28 142//27 
f 31//27 142//27 141//26 
f 6//26 141//26 140//25 
f 9//25 140//25 139//24 
f 18//24 139//24 138//23 
f 11//23 138//23 137//22 
f 1//22 137//22 136//21 
f 4//21 136//21 135//20 
f 19//20 135//20 134//19 
f 49//19 134//19 133//18 
f 32//18 133//18 132//17 
f 33//17 132//17 131//16 
f 35//16 131//16 130//15 
f 37//15 130//15 129//14 
f 39//14 129//14 128//13 
f 52//13 128//13 127//12 
f 54//12 127//12 126//11 
f 56//11 126//11 125//10 
f 41//10 125//10 124//9 
f 42//9 124//9 123//8 
f 21//8 123//8 122//7 
f 24//7 122//7 121//6 
f 59//6 121//6 120//5 
f 26//5 120//5 119//4 
f 13//4 119//4 118//3 
f 16//3 118//3 117//2 
o mesh2
f 122//60 123//60 175//60 
f 123//60 124//60 176//60 
f 119//60 177//60 178//60 
f 119//60 120//60 179//60 
f 121//60 122//60 180//60 
f 176//60 175//60 123//60 
f 128//60 181//60 182//60 
f 128//60 129//60 183//60 
f 130//60 184//60 183//60 
f 130//60 131//60 185//60 
f 162//60 186//60 187//60 
f 163//60 188//60 186//60 
f 179//60 177//60 119//60 
f 120//60 121//60 189//60 
f 175//60 180//60 122//60 
f 125//60 190//60 176//60 
f 126//60 191//60 190//60 
f 126//60 127//60 182//60 
f 183//60 181//60 128//60 
f 185//60 184//60 130//60 
f 186//60 162//60 163//60 
f 163//60 164//60 192//60 
f 166//60 167//60 193//60 
f 167//60 168//60 194//60 
f 118//60 178//60 195//60 
f 189//60 179//60 120//60 
f 176//60 124//60 125//60 
f 182//60 191//60 126//60 
f 183//60 129//60 130//60 
f 131//60 132//60 196//60 
f 137//60 197//60 198//60 
f 137//60 138//60 199//60 
f 148//60 200//60 201//60 
f 148//60 149//60 202//60 
f 158//60 203//60 204//60 
f 158//60 159//60 205//60 
f 192//60 188//60 163//60 
f 164//60 165//60 206//60 
f 194//60 193//60 167//60 
f 168//60 169//60 207//60 
f 169//60 170//60 208//60 
f 170//60 171//60 209//60 
f 178//60 118//60 119//60 
f 190//60 125//60 126//60 
f 196//60 185//60 131//60 
f 132//60 133//60 210//60 
f 199//60 197//60 137//60 
f 138//60 139//60 211//60 
f 141//60 212//60 213//60 
f 141//60 142//60 214//60 
f 145//60 215//60 216//60 
f 146//60 217//60 215//60 
f 147//60 201//60 217//60 
f 202//60 200//60 148//60 
f 150//60 218//60 202//60 
f 150//60 151//60 219//60 
f 152//60 220//60 219//60 
f 152//60 153//60 221//60 
f 205//60 203//60 158//60 
f 159//60 160//60 222//60 
f 206//60 192//60 164//60 
f 165//60 166//60 223//60 
f 207//60 194//60 168//60 
f 209//60 208//60 170//60 
f 180//60 189//60 121//60 
f 210//60 196//60 132//60 
f 134//60 224//60 210//60 
f 134//60 135//60 225//60 
f 135//60 136//60 198//60 
f 211//60 199//60 138//60 
f 140//60 213//60 211//60 
f 214//60 212//60 141//60 
f 215//60 145//60 146//60 
f 201//60 147//60 148//60 
f 219//60 218//60 150//60 
f 221//60 220//60 152//60 
f 154//60 226//60 221//60 
f 154//60 155//60 227//60 
f 156//60 228//60 227//60 
f 156//60 157//60 204//60 
f 222//60 205//60 159//60 
f 161//60 187//60 222//60 
f 223//60 206//60 165//60 
f 208//60 207//60 169//60 
f 171//60 172//60 229//60 
f 172//60 173//60 230//60 
f 174//60 231//60 230//60 
f 174//60 117//60 195//60 
f 182//60 127//60 128//60 
f 225//60 224//60 134//60 
f 198//60 136//60 137//60 
f 213//60 140//60 141//60 
f 217//60 146//60 147//60 
f 219//60 151//60 152//60 
f 227//60 226//60 154//60 
f 204//60 228//60 156//60 
f 222//60 160//60 161//60 
f 193//60 223//60 166//60 
f 230//60 229//60 172//60 
f 195//60 231//60 174//60 
f 210//60 133//60 134//60 
f 211//60 139//60 140//60 
f 143//60 232//60 214//60 
f 143//60 144//60 216//60 
f 202//60 149//60 150//60 
f 227//60 155//60 156//60 
f 187//60 161//60 162//60 
f 230//60 173//60 174//60 
f 198//60 225//60 135//60 
f 216//60 232//60 143//60 
f 221//60 153//60 154//60 
f 229//60 209//60 171//60 
f 214//60 142//60 143//60 
f 204//60 157//60 158//60 
f 216//60 144//60 145//60 
f 195//60 117//60 118//60 
o mesh3
f 231//61 195//62 44//62 
f 230//63 231//61 46//64 
f 229//65 230//63 48//66 
f 209//67 229//65 61//68 
f 208//69 209//67 63//70 
f 207//71 208//69 65//72 
f 194//73 207//71 67//74 
f 193//75 194//73 74//76 
f 223//77 193//75 76//78 
f 206//79 223//77 78//80 
f 192//81 206//79 80//82 
f 188//83 192//81 70//84 
f 186//85 188//83 69//86 
f 187//87 186//85 72//88 
f 222//89 187//87 83//90 
f 205//91 222//89 106//92 
f 203//93 205//91 86//94 
f 204//95 203//93 85//96 
f 228//97 204//95 88//98 
f 227//99 228//97 90//100 
f 226//101 227//99 92//102 
f 221//103 226//101 94//104 
f 220//105 221//103 96//106 
f 219//107 220//105 98//108 
f 218//109 219//107 100//110 
f 202//111 218//109 102//112 
f 200//113 202//111 104//114 
f 201//115 200//113 108//116 
f 217//117 201//115 110//118 
f 215//119 217//117 113//120 
f 216//121 215//119 115//122 
f 232//123 216//121 30//124 
f 214//125 232//123 29//126 
f 212//127 214//125 8//128 
f 213//129 212//127 7//130 
f 211//131 213//129 10//132 
f 199//133 211//131 12//134 
f 197//135 199//133 3//136 
f 198//137 197//135 2//138 
f 225//139 198//137 5//140 
f 224//141 225//139 20//142 
f 210//143 224//141 50//144 
f 196//145 210//143 51//146 
f 185//147 196//145 34//148 
f 184//149 185//147 36//150 
f 183//151 184//149 38//152 
f 181//153 183//151 40//154 
f 182//155 181//153 53//156 
f 191//157 182//155 55//158 
f 190//159 191//157 57//160 
f 176//161 190//159 58//162 
f 175//163 176//161 23//164 
f 180//165 175//163 22//166 
f 189//167 180//165 25//168 
f 179//169 189//167 27//170 
f 177//171 179//169 15//172 
f 178//173 177//171 14//174 
f 195//62 178//173 17//173 
f 17//173 44//62 195//62 
f 14//174 17//173 178//173 
f 15//172 14//174 177//171 
f 27//170 15//172 179//169 
f 25//168 27//170 189//167 
f 22//166 25//168 180//165 
f 23//164 22//166 175//163 
f 58//162 23//164 176//161 
f 57//160 58//162 190//159 
f 55//158 57//160 191//157 
f 53//156 55//158 182//155 
f 40//154 53//156 181//153 
f 38//152 40//154 183//151 
f 36//150 38//152 184//149 
f 34//148 36//150 185//147 
f 51//146 34//148 196//145 
f 50//144 51//146 210//143 
f 20//142 50//144 224//141 
f 5//140 20//142 225//139 
f 2//138 5//140 198//137 
f 3//136 2//138 197//135 
f 12//134 3//136 199//133 
f 10//132 12//134 211//131 
f 7//130 10//132 213//129 
f 8//128 7//130 212//127 
f 29//126 8//128 214//125 
f 30//124 29//126 232//123 
f 115//122 30//124 216//121 
f 113//120 115//122 215//119 
f 110//118 113//120 217//117 
f 108//116 110//118 201//115 
f 104//114 108//116 200//113 
f 102//112 104//114 202//111 
f 100//110 102//112 218//109 
f 98//108 100//110 219//107 
f 96//106 98//108 220//105 
f 94//104 96//106 221//103 
f 92//102 94//104 226//101 
f 90//100 92//102 227//99 
f 88//98 90//100 228//97 
f 85//96 88//98 204//95 
f 86//94 85//96 203//93 
f 106//92 86//94 205//91 
f 83//90 106//92 222//89 
f 72//88 83//90 187//87 
f 69//86 72//88 186//85 
f 70//84 69//86 188//83 
f 80//82 70//84 192//81 
f 78//80 80//82 206//79 
f 76//78 78//80 223//77 
f 74//76 76//78 193//75 
f 67//74 74//76 194//73 
f 65//72 67//74 207//71 
f 63//70 65//72 208//69 
f 61//68 63//70 209//67 
f 48//66 61//68 229//65 
f 46//64 48//66 230//63 
f 44//62 46//64 231//61 
