# OBJ generated by ONSHAPE BY PTC INC, 1.213 Units = meters
mtllib MCPBearingFlange.mtl
g Part 1
v -0.00839336 0.001 0.00444988 
v -0.00750985 0.001 0.00398147 
v -0.0078963 0.001 0.00314617 
v -0.00786305 0.001 0.00533128 
v -0.00703536 0.001 0.00477009 
v 0.00786305 0.001 -0.00533128 
v 0.00703536 0.001 -0.00477009 
v 0.00750985 0.001 -0.00398147 
v 0.00724054 0.001 -0.00615017 
v 0.00647838 0.001 -0.00550278 
v -0.00915372 0.001 0.00254152 
v -0.00819017 0.001 0.00227399 
v -0.00838803 0.001 0.00137515 
v -0.00882528 0.001 0.00351631 
v -0.00724054 0.001 0.00615017 
v -0.00647838 0.001 0.00550278 
v 0.00653314 0.001 -0.00689696 
v 0.00584545 0.001 -0.00617096 
v 0.00574916 0.001 -0.00756288 
v 0.00514398 0.001 -0.00676679 
v 0.00489776 0.001 -0.00814014 
v 0.00438221 0.001 -0.00728329 
v -0.00574916 0.001 0.00756288 
v -0.00514398 0.001 0.00676679 
v -0.00584545 0.001 0.00617096 
v -0.00489776 0.001 0.00814014 
v -0.00438221 0.001 0.00728329 
v -0.00398895 0.001 0.00862197 
v -0.00356906 0.001 0.00771439 
v -0.00303336 0.001 0.00900271 
v -0.00271406 0.001 0.00805505 
v 0.00948607 0.001 0.00051432 
v 0.00848753 0.001 0.000460181 
v 0.00838803 0.001 0.00137515 
v 0.00948607 0.001 -0.00051432 
v 0.00848753 0.001 -0.000460181 
v -0.00915372 0.001 -0.00254152 
v -0.00819017 0.001 -0.00227399 
v -0.0078963 0.001 -0.00314617 
v -0.00937485 0.001 -0.00153693 
v -0.00838803 0.001 -0.00137515 
v -0.00653314 0.001 0.00689696 
v 0.00489776 0.001 0.00814014 
v 0.00438221 0.001 0.00728329 
v 0.00356906 0.001 0.00771439 
v 0.00574916 0.001 0.00756288 
v 0.00514398 0.001 0.00676679 
v 0.00724054 0.001 0.00615017 
v 0.00647838 0.001 0.00550278 
v 0.00584545 0.001 0.00617096 
v 0.00786305 0.001 0.00533128 
v 0.00703536 0.001 0.00477009 
v 0.00937485 0.001 -0.00153693 
v 0.00838803 0.001 -0.00137515 
v 0.00398895 0.001 -0.00862197 
v 0.00356906 0.001 -0.00771439 
v 0.00303336 0.001 -0.00900271 
v 0.00271406 0.001 -0.00805505 
v 0.00204222 0.001 -0.0092779 
v 0.00182725 0.001 -0.00830127 
v -0.00948607 0.001 -0.00051432 
v -0.00848753 0.001 -0.000460181 
v -0.00948607 0.001 0.00051432 
v -0.00848753 0.001 0.000460181 
v -0.00937485 0.001 0.00153693 
v 0.00653314 0.001 0.00689696 
v 0.00839336 0.001 0.00444988 
v 0.00750985 0.001 0.00398147 
v 0.00915372 0.001 0.00254152 
v 0.00819017 0.001 0.00227399 
v 0.0078963 0.001 0.00314617 
v 0.00937485 0.001 0.00153693 
v 0.00915372 0.001 -0.00254152 
v 0.00819017 0.001 -0.00227399 
v 0.00882528 0.001 -0.00351631 
v 0.0078963 0.001 -0.00314617 
v 0.00839336 0.001 -0.00444988 
v 0.00102713 0.001 -0.00944431 
v 0.000919012 0.001 -0.00845017 
v 0 0.001 -0.0095 
v 0 0.001 -0.0085 
v -0.00204222 0.001 0.0092779 
v -0.00182725 0.001 0.00830127 
v 0.00102713 0.001 0.00944431 
v 0.000919012 0.001 0.00845017 
v 1.04095e-18 0.001 0.0085 
v 0.00204222 0.001 0.0092779 
v 0.00182725 0.001 0.00830127 
v 0.00303336 0.001 0.00900271 
v 0.00271406 0.001 0.00805505 
v 0.00398895 0.001 0.00862197 
v 0.00882528 0.001 0.00351631 
v -0.00303336 0.001 -0.00900271 
v -0.00271406 0.001 -0.00805505 
v -0.00182725 0.001 -0.00830127 
v -0.00398895 0.001 -0.00862197 
v -0.00356906 0.001 -0.00771439 
v -0.00574916 0.001 -0.00756288 
v -0.00514398 0.001 -0.00676679 
v -0.00438221 0.001 -0.00728329 
v -0.00653314 0.001 -0.00689696 
v -0.00584545 0.001 -0.00617096 
v -0.00724054 0.001 -0.00615017 
v -0.00647838 0.001 -0.00550278 
v -0.00786305 0.001 -0.00533128 
v -0.00703536 0.001 -0.00477009 
v -0.00102713 0.001 0.00944431 
v -0.000919012 0.001 0.00845017 
v 3.49024e-18 0.001 0.0095 
v -0.00102713 0.001 -0.00944431 
v -0.000919012 0.001 -0.00845017 
v -0.00204222 0.001 -0.0092779 
v -0.00489776 0.001 -0.00814014 
v -0.00839336 0.001 -0.00444988 
v -0.00750985 0.001 -0.00398147 
v -0.00882528 0.001 -0.00351631 
v 0 0 -0.0095 
v 0.00102713 0 -0.00944431 
v 0.00204222 0 -0.0092779 
v 0.00303336 0 -0.00900271 
v 0.00398895 0 -0.00862197 
v 0.00489776 0 -0.00814014 
v 0.00574916 0 -0.00756288 
v 0.00653314 0 -0.00689696 
v 0.00724054 0 -0.00615017 
v 0.00786305 0 -0.00533128 
v 0.00839336 0 -0.00444988 
v 0.00882528 0 -0.00351631 
v 0.00915372 0 -0.00254152 
v 0.00937485 0 -0.00153693 
v 0.00948607 0 -0.00051432 
v 0.00948607 0 0.00051432 
v 0.00937485 0 0.00153693 
v 0.00915372 0 0.00254152 
v 0.00882528 0 0.00351631 
v 0.00839336 0 0.00444988 
v 0.00786305 0 0.00533128 
v 0.00724054 0 0.00615017 
v 0.00653314 0 0.00689696 
v 0.00574916 0 0.00756288 
v 0.00489776 0 0.00814014 
v 0.00398895 0 0.00862197 
v 0.00303336 0 0.00900271 
v 0.00204222 0 0.0092779 
v 0.00102713 0 0.00944431 
v 1.16341e-18 0 0.0095 
v -0.00102713 0 0.00944431 
v -0.00204222 0 0.0092779 
v -0.00303336 0 0.00900271 
v -0.00398895 0 0.00862197 
v -0.00489776 0 0.00814014 
v -0.00574916 0 0.00756288 
v -0.00653314 0 0.00689696 
v -0.00724054 0 0.00615017 
v -0.00786305 0 0.00533128 
v -0.00839336 0 0.00444988 
v -0.00882528 0 0.00351631 
v -0.00915372 0 0.00254152 
v -0.00937485 0 0.00153693 
v -0.00948607 0 0.00051432 
v -0.00948607 0 -0.00051432 
v -0.00937485 0 -0.00153693 
v -0.00915372 0 -0.00254152 
v -0.00882528 0 -0.00351631 
v -0.00839336 0 -0.00444988 
v -0.00786305 0 -0.00533128 
v -0.00724054 0 -0.00615017 
v -0.00653314 0 -0.00689696 
v -0.00574916 0 -0.00756288 
v -0.00489776 0 -0.00814014 
v -0.00398895 0 -0.00862197 
v -0.00303336 0 -0.00900271 
v -0.00204222 0 -0.0092779 
v -0.00102713 0 -0.00944431 
v -0.00356906 0 0.00771439 
v -0.00271406 0 0.00805505 
v -0.00438221 0 0.00728329 
v -0.00514398 0 0.00676679 
v -0.00584545 0 0.00617096 
v -0.00703536 0 0.00477009 
v -0.00647838 0 0.00550278 
v -0.00750985 0 0.00398147 
v -0.0078963 0 0.00314617 
v -0.00819017 0 0.00227399 
v -0.00838803 0 0.00137515 
v 0.00819017 0 0.00227399 
v 0.00838803 0 0.00137515 
v 0.0078963 0 0.00314617 
v 0.00647838 0 0.00550278 
v 0.00703536 0 0.00477009 
v 0.00584545 0 0.00617096 
v -0.00819017 0 -0.00227399 
v -0.00838803 0 -0.00137515 
v -0.0078963 0 -0.00314617 
v 0.00750985 0 0.00398147 
v 0.00514398 0 0.00676679 
v 0.00438221 0 0.00728329 
v -0.000919012 0 0.00845017 
v 3.12285e-18 0 0.0085 
v -0.00182725 0 0.00830127 
v -0.00848753 0 0.000460181 
v -0.00848753 0 -0.000460181 
v 0.00356906 0 0.00771439 
v 0.00271406 0 0.00805505 
v 0.00182725 0 0.00830127 
v 0.000919012 0 0.00845017 
v 0.00514398 0 -0.00676679 
v 0.00438221 0 -0.00728329 
v 0.00584545 0 -0.00617096 
v 0.00647838 0 -0.00550278 
v 0.00703536 0 -0.00477009 
v 0.00848753 0 -0.000460181 
v 0.00838803 0 -0.00137515 
v 0.00848753 0 0.000460181 
v -0.00750985 0 -0.00398147 
v -0.00703536 0 -0.00477009 
v -0.00647838 0 -0.00550278 
v -0.00584545 0 -0.00617096 
v -0.00514398 0 -0.00676679 
v -0.00438221 0 -0.00728329 
v -0.00356906 0 -0.00771439 
v -0.00271406 0 -0.00805505 
v 0.000919012 0 -0.00845017 
v 0 0 -0.0085 
v 0.00182725 0 -0.00830127 
v 0.00271406 0 -0.00805505 
v 0.00356906 0 -0.00771439 
v 0.00750985 0 -0.00398147 
v -0.00182725 0 -0.00830127 
v 0.0078963 0 -0.00314617 
v 0.00819017 0 -0.00227399 
v -0.000919012 0 -0.00845017 
vn 0 1 0 
vn 0 0 -1 
vn 0.108119 0 -0.994138 
vn 0.21497 0 -0.976621 
vn 0.319302 0 -0.947653 
vn 0.419889 0 -0.907575 
vn 0.515554 0 -0.856857 
vn 0.605174 0 -0.796093 
vn 0.687699 0 -0.725995 
vn 0.762162 0 -0.647386 
vn 0.827689 0 -0.561187 
vn 0.883512 0 -0.468408 
vn 0.928977 0 -0.370138 
vn 0.96355 0 -0.267528 
vn 0.986827 0 -0.161782 
vn 0.998533 0 -0.0541389 
vn 0.998533 0 0.0541389 
vn 0.986827 0 0.161782 
vn 0.96355 0 0.267528 
vn 0.928977 0 0.370138 
vn 0.883512 0 0.468408 
vn 0.827689 0 0.561187 
vn 0.762162 0 0.647386 
vn 0.687699 0 0.725995 
vn 0.605174 0 0.796093 
vn 0.515554 0 0.856857 
vn 0.419889 0 0.907575 
vn 0.319302 0 0.947653 
vn 0.21497 0 0.976621 
vn 0.108119 0 0.994138 
vn 1.22465e-16 0 1 
vn -0.108119 0 0.994138 
vn -0.21497 0 0.976621 
vn -0.319302 0 0.947653 
vn -0.419889 0 0.907575 
vn -0.515554 0 0.856857 
vn -0.605174 0 0.796093 
vn -0.687699 0 0.725995 
vn -0.762162 0 0.647386 
vn -0.827689 0 0.561187 
vn -0.883512 0 0.468408 
vn -0.928977 0 0.370138 
vn -0.96355 0 0.267528 
vn -0.986827 0 0.161782 
vn -0.998533 0 0.0541389 
vn -0.998533 0 -0.0541389 
vn -0.986827 0 -0.161782 
vn -0.96355 0 -0.267528 
vn -0.928977 0 -0.370138 
vn -0.883512 0 -0.468408 
vn -0.827689 0 -0.561187 
vn -0.762162 0 -0.647386 
vn -0.687699 0 -0.725995 
vn -0.605174 0 -0.796093 
vn -0.515554 0 -0.856857 
vn -0.419889 0 -0.907575 
vn -0.319302 0 -0.947653 
vn -0.21497 0 -0.976621 
vn -0.108119 0 -0.994138 
vn 0 -1 0 
vn 0.108119 0 0.994138 
vn 2.44929e-16 0 1 
vn 0.21497 0 0.976621 
vn 0.108119 0 0.994138 
vn 0.319302 0 0.947653 
vn 0.21497 0 0.976621 
vn 0.419889 0 0.907575 
vn 0.319302 0 0.947653 
vn 0.515554 0 0.856857 
vn 0.419889 0 0.907575 
vn 0.605174 0 0.796093 
vn 0.515554 0 0.856857 
vn 0.687699 0 0.725995 
vn 0.605174 0 0.796093 
vn 0.762162 0 0.647386 
vn 0.687699 0 0.725995 
vn 0.827689 0 0.561187 
vn 0.762162 0 0.647386 
vn 0.883512 0 0.468408 
vn 0.827689 0 0.561187 
vn 0.928977 0 0.370138 
vn 0.883512 0 0.468408 
vn 0.96355 0 0.267528 
vn 0.928977 0 0.370138 
vn 0.986827 0 0.161782 
vn 0.96355 0 0.267528 
vn 0.998533 0 0.0541389 
vn 0.986827 0 0.161782 
vn 0.998533 0 -0.0541389 
vn 0.998533 0 0.0541389 
vn 0.986827 0 -0.161782 
vn 0.998533 0 -0.0541389 
vn 0.96355 0 -0.267528 
vn 0.986827 0 -0.161782 
vn 0.928977 0 -0.370138 
vn 0.96355 0 -0.267528 
vn 0.883512 0 -0.468408 
vn 0.928977 0 -0.370138 
vn 0.827689 0 -0.561187 
vn 0.883512 0 -0.468408 
vn 0.762162 0 -0.647386 
vn 0.827689 0 -0.561187 
vn 0.687699 0 -0.725995 
vn 0.762162 0 -0.647386 
vn 0.605174 0 -0.796093 
vn 0.687699 0 -0.725995 
vn 0.515554 0 -0.856857 
vn 0.605174 0 -0.796093 
vn 0.419889 0 -0.907575 
vn 0.515554 0 -0.856857 
vn 0.319302 0 -0.947653 
vn 0.419889 0 -0.907575 
vn 0.21497 0 -0.976621 
vn 0.319302 0 -0.947653 
vn 0.108119 0 -0.994138 
vn 0.21497 0 -0.976621 
vn -1.22465e-16 0 -1 
vn 0.108119 0 -0.994138 
vn -0.108119 0 -0.994138 
vn -1.22465e-16 0 -1 
vn -0.21497 0 -0.976621 
vn -0.108119 0 -0.994138 
vn -0.319302 0 -0.947653 
vn -0.21497 0 -0.976621 
vn -0.419889 0 -0.907575 
vn -0.319302 0 -0.947653 
vn -0.515554 0 -0.856857 
vn -0.419889 0 -0.907575 
vn -0.605174 0 -0.796093 
vn -0.515554 0 -0.856857 
vn -0.687699 0 -0.725995 
vn -0.605174 0 -0.796093 
vn -0.762162 0 -0.647386 
vn -0.687699 0 -0.725995 
vn -0.827689 0 -0.561187 
vn -0.762162 0 -0.647386 
vn -0.883512 0 -0.468408 
vn -0.827689 0 -0.561187 
vn -0.928977 0 -0.370138 
vn -0.883512 0 -0.468408 
vn -0.96355 0 -0.267528 
vn -0.928977 0 -0.370138 
vn -0.986827 0 -0.161782 
vn -0.96355 0 -0.267528 
vn -0.998533 0 -0.0541389 
vn -0.986827 0 -0.161782 
vn -0.998533 0 0.0541389 
vn -0.998533 0 -0.0541389 
vn -0.986827 0 0.161782 
vn -0.998533 0 0.0541389 
vn -0.96355 0 0.267528 
vn -0.986827 0 0.161782 
vn -0.928977 0 0.370138 
vn -0.96355 0 0.267528 
vn -0.883512 0 0.468408 
vn -0.928977 0 0.370138 
vn -0.827689 0 0.561187 
vn -0.883512 0 0.468408 
vn -0.762162 0 0.647386 
vn -0.827689 0 0.561187 
vn -0.687699 0 0.725995 
vn -0.762162 0 0.647386 
vn -0.605174 0 0.796093 
vn -0.687699 0 0.725995 
vn -0.515554 0 0.856857 
vn -0.605174 0 0.796093 
vn -0.419889 0 0.907575 
vn -0.515554 0 0.856857 
vn -0.319302 0 0.947653 
vn -0.419889 0 0.907575 
vn -0.21497 0 0.976621 
vn -0.319302 0 0.947653 
vn -0.108119 0 0.994138 
vn -0.21497 0 0.976621 
usemtl 0.796078_0.823529_0.937255_0.000000_0.000000
o mesh0
f 1//1 2//1 3//1 
f 4//1 5//1 2//1 
f 6//1 7//1 8//1 
f 9//1 10//1 7//1 
f 11//1 12//1 13//1 
f 14//1 3//1 12//1 
f 2//1 1//1 4//1 
f 4//1 15//1 16//1 
f 7//1 6//1 9//1 
f 17//1 18//1 10//1 
f 19//1 20//1 18//1 
f 19//1 21//1 22//1 
f 12//1 11//1 14//1 
f 16//1 5//1 4//1 
f 23//1 24//1 25//1 
f 26//1 27//1 24//1 
f 28//1 29//1 27//1 
f 28//1 30//1 31//1 
f 32//1 33//1 34//1 
f 32//1 35//1 36//1 
f 10//1 9//1 17//1 
f 22//1 20//1 19//1 
f 37//1 38//1 39//1 
f 37//1 40//1 41//1 
f 3//1 14//1 1//1 
f 15//1 42//1 25//1 
f 24//1 23//1 26//1 
f 31//1 29//1 28//1 
f 43//1 44//1 45//1 
f 46//1 47//1 44//1 
f 48//1 49//1 50//1 
f 48//1 51//1 52//1 
f 36//1 33//1 32//1 
f 35//1 53//1 54//1 
f 18//1 17//1 19//1 
f 21//1 55//1 56//1 
f 57//1 58//1 56//1 
f 59//1 60//1 58//1 
f 41//1 38//1 37//1 
f 40//1 61//1 62//1 
f 61//1 63//1 64//1 
f 63//1 65//1 13//1 
f 25//1 16//1 15//1 
f 27//1 26//1 28//1 
f 44//1 43//1 46//1 
f 46//1 66//1 50//1 
f 52//1 49//1 48//1 
f 51//1 67//1 68//1 
f 69//1 70//1 71//1 
f 69//1 72//1 34//1 
f 54//1 36//1 35//1 
f 53//1 73//1 74//1 
f 75//1 76//1 74//1 
f 75//1 77//1 8//1 
f 56//1 22//1 21//1 
f 58//1 57//1 59//1 
f 78//1 79//1 60//1 
f 78//1 80//1 81//1 
f 62//1 41//1 40//1 
f 13//1 64//1 63//1 
f 25//1 42//1 23//1 
f 82//1 83//1 31//1 
f 84//1 85//1 86//1 
f 84//1 87//1 88//1 
f 89//1 90//1 88//1 
f 89//1 91//1 45//1 
f 50//1 47//1 46//1 
f 68//1 52//1 51//1 
f 92//1 71//1 68//1 
f 34//1 70//1 69//1 
f 74//1 54//1 53//1 
f 8//1 76//1 75//1 
f 56//1 55//1 57//1 
f 81//1 79//1 78//1 
f 93//1 94//1 95//1 
f 96//1 97//1 94//1 
f 98//1 99//1 100//1 
f 98//1 101//1 102//1 
f 103//1 104//1 102//1 
f 103//1 105//1 106//1 
f 64//1 62//1 61//1 
f 31//1 30//1 82//1 
f 107//1 108//1 83//1 
f 109//1 86//1 108//1 
f 88//1 85//1 84//1 
f 45//1 90//1 89//1 
f 50//1 66//1 48//1 
f 71//1 92//1 69//1 
f 74//1 73//1 75//1 
f 60//1 59//1 78//1 
f 110//1 111//1 81//1 
f 110//1 112//1 95//1 
f 94//1 93//1 96//1 
f 96//1 113//1 100//1 
f 102//1 99//1 98//1 
f 106//1 104//1 103//1 
f 114//1 115//1 106//1 
f 114//1 116//1 39//1 
f 13//1 65//1 11//1 
f 108//1 107//1 109//1 
f 88//1 87//1 89//1 
f 68//1 67//1 92//1 
f 8//1 77//1 6//1 
f 95//1 111//1 110//1 
f 100//1 97//1 96//1 
f 102//1 101//1 103//1 
f 39//1 115//1 114//1 
f 83//1 82//1 107//1 
f 45//1 91//1 43//1 
f 81//1 80//1 110//1 
f 100//1 113//1 98//1 
f 39//1 116//1 37//1 
f 34//1 72//1 32//1 
f 106//1 105//1 114//1 
f 95//1 112//1 93//1 
f 86//1 109//1 84//1 
o mesh1
f 117//2 80//2 78//3 
f 118//3 78//3 59//4 
f 119//4 59//4 57//5 
f 120//5 57//5 55//6 
f 121//6 55//6 21//7 
f 122//7 21//7 19//8 
f 123//8 19//8 17//9 
f 124//9 17//9 9//10 
f 125//10 9//10 6//11 
f 126//11 6//11 77//12 
f 127//12 77//12 75//13 
f 128//13 75//13 73//14 
f 129//14 73//14 53//15 
f 130//15 53//15 35//16 
f 131//16 35//16 32//17 
f 132//17 32//17 72//18 
f 133//18 72//18 69//19 
f 134//19 69//19 92//20 
f 135//20 92//20 67//21 
f 136//21 67//21 51//22 
f 137//22 51//22 48//23 
f 138//23 48//23 66//24 
f 139//24 66//24 46//25 
f 140//25 46//25 43//26 
f 141//26 43//26 91//27 
f 142//27 91//27 89//28 
f 143//28 89//28 87//29 
f 144//29 87//29 84//30 
f 145//30 84//30 109//31 
f 146//31 109//31 107//32 
f 147//32 107//32 82//33 
f 148//33 82//33 30//34 
f 149//34 30//34 28//35 
f 150//35 28//35 26//36 
f 151//36 26//36 23//37 
f 152//37 23//37 42//38 
f 153//38 42//38 15//39 
f 154//39 15//39 4//40 
f 155//40 4//40 1//41 
f 156//41 1//41 14//42 
f 157//42 14//42 11//43 
f 158//43 11//43 65//44 
f 159//44 65//44 63//45 
f 160//45 63//45 61//46 
f 161//46 61//46 40//47 
f 162//47 40//47 37//48 
f 163//48 37//48 116//49 
f 164//49 116//49 114//50 
f 165//50 114//50 105//51 
f 166//51 105//51 103//52 
f 167//52 103//52 101//53 
f 168//53 101//53 98//54 
f 169//54 98//54 113//55 
f 170//55 113//55 96//56 
f 171//56 96//56 93//57 
f 172//57 93//57 112//58 
f 173//58 112//58 110//59 
f 174//59 110//59 80//2 
f 80//2 117//2 174//59 
f 110//59 174//59 173//58 
f 112//58 173//58 172//57 
f 93//57 172//57 171//56 
f 96//56 171//56 170//55 
f 113//55 170//55 169//54 
f 98//54 169//54 168//53 
f 101//53 168//53 167//52 
f 103//52 167//52 166//51 
f 105//51 166//51 165//50 
f 114//50 165//50 164//49 
f 116//49 164//49 163//48 
f 37//48 163//48 162//47 
f 40//47 162//47 161//46 
f 61//46 161//46 160//45 
f 63//45 160//45 159//44 
f 65//44 159//44 158//43 
f 11//43 158//43 157//42 
f 14//42 157//42 156//41 
f 1//41 156//41 155//40 
f 4//40 155//40 154//39 
f 15//39 154//39 153//38 
f 42//38 153//38 152//37 
f 23//37 152//37 151//36 
f 26//36 151//36 150//35 
f 28//35 150//35 149//34 
f 30//34 149//34 148//33 
f 82//33 148//33 147//32 
f 107//32 147//32 146//31 
f 109//31 146//31 145//30 
f 84//30 145//30 144//29 
f 87//29 144//29 143//28 
f 89//28 143//28 142//27 
f 91//27 142//27 141//26 
f 43//26 141//26 140//25 
f 46//25 140//25 139//24 
f 66//24 139//24 138//23 
f 48//23 138//23 137//22 
f 51//22 137//22 136//21 
f 67//21 136//21 135//20 
f 92//20 135//20 134//19 
f 69//19 134//19 133//18 
f 72//18 133//18 132//17 
f 32//17 132//17 131//16 
f 35//16 131//16 130//15 
f 53//15 130//15 129//14 
f 73//14 129//14 128//13 
f 75//13 128//13 127//12 
f 77//12 127//12 126//11 
f 6//11 126//11 125//10 
f 9//10 125//10 124//9 
f 17//9 124//9 123//8 
f 19//8 123//8 122//7 
f 21//7 122//7 121//6 
f 55//6 121//6 120//5 
f 57//5 120//5 119//4 
f 59//4 119//4 118//3 
f 78//3 118//3 117//2 
o mesh2
f 150//60 175//60 176//60 
f 150//60 151//60 177//60 
f 177//60 175//60 150//60 
f 151//60 152//60 178//60 
f 178//60 177//60 151//60 
f 152//60 153//60 179//60 
f 155//60 180//60 181//60 
f 155//60 156//60 182//60 
f 179//60 178//60 152//60 
f 154//60 181//60 179//60 
f 182//60 180//60 155//60 
f 156//60 157//60 183//60 
f 179//60 153//60 154//60 
f 183//60 182//60 156//60 
f 157//60 158//60 184//60 
f 158//60 159//60 185//60 
f 134//60 186//60 187//60 
f 134//60 135//60 188//60 
f 138//60 189//60 190//60 
f 138//60 139//60 191//60 
f 181//60 154//60 155//60 
f 185//60 184//60 158//60 
f 163//60 192//60 193//60 
f 163//60 164//60 194//60 
f 188//60 186//60 134//60 
f 135//60 136//60 195//60 
f 137//60 190//60 195//60 
f 191//60 189//60 138//60 
f 140//60 196//60 191//60 
f 140//60 141//60 197//60 
f 147//60 198//60 199//60 
f 147//60 148//60 200//60 
f 148//60 149//60 176//60 
f 184//60 183//60 157//60 
f 160//60 201//60 185//60 
f 161//60 202//60 201//60 
f 162//60 193//60 202//60 
f 194//60 192//60 163//60 
f 195//60 188//60 135//60 
f 190//60 137//60 138//60 
f 197//60 196//60 140//60 
f 141//60 142//60 203//60 
f 143//60 204//60 203//60 
f 143//60 144//60 205//60 
f 145//60 206//60 205//60 
f 145//60 146//60 199//60 
f 200//60 198//60 147//60 
f 176//60 149//60 150//60 
f 201//60 160//60 161//60 
f 193//60 162//60 163//60 
f 123//60 207//60 208//60 
f 123//60 124//60 209//60 
f 124//60 125//60 210//60 
f 125//60 126//60 211//60 
f 131//60 212//60 213//60 
f 131//60 132//60 214//60 
f 195//60 136//60 137//60 
f 203//60 197//60 141//60 
f 205//60 204//60 143//60 
f 199//60 206//60 145//60 
f 176//60 200//60 148//60 
f 202//60 161//60 162//60 
f 165//60 215//60 194//60 
f 165//60 166//60 216//60 
f 167//60 217//60 216//60 
f 167//60 168//60 218//60 
f 169//60 219//60 218//60 
f 169//60 170//60 220//60 
f 171//60 221//60 220//60 
f 171//60 172//60 222//60 
f 118//60 223//60 224//60 
f 118//60 119//60 225//60 
f 119//60 120//60 226//60 
f 120//60 121//60 227//60 
f 122//60 208//60 227//60 
f 209//60 207//60 123//60 
f 211//60 210//60 125//60 
f 126//60 127//60 228//60 
f 214//60 212//60 131//60 
f 132//60 133//60 187//60 
f 191//60 139//60 140//60 
f 205//60 144//60 145//60 
f 185//60 159//60 160//60 
f 216//60 215//60 165//60 
f 218//60 217//60 167//60 
f 220//60 219//60 169//60 
f 222//60 221//60 171//60 
f 172//60 173//60 229//60 
f 225//60 223//60 118//60 
f 227//60 226//60 120//60 
f 208//60 122//60 123//60 
f 228//60 211//60 126//60 
f 128//60 230//60 228//60 
f 128//60 129//60 231//60 
f 129//60 130//60 213//60 
f 187//60 214//60 132//60 
f 203//60 142//60 143//60 
f 194//60 164//60 165//60 
f 218//60 168//60 169//60 
f 229//60 222//60 172//60 
f 226//60 225//60 119//60 
f 210//60 209//60 124//60 
f 231//60 230//60 128//60 
f 213//60 130//60 131//60 
f 199//60 146//60 147//60 
f 220//60 170//60 171//60 
f 174//60 232//60 229//60 
f 174//60 117//60 224//60 
f 227//60 121//60 122//60 
f 213//60 231//60 129//60 
f 216//60 166//60 167//60 
f 224//60 232//60 174//60 
f 228//60 127//60 128//60 
f 229//60 173//60 174//60 
f 187//60 133//60 134//60 
f 224//60 117//60 118//60 
o mesh3
f 232//61 224//62 81//62 
f 229//63 232//61 111//64 
f 222//65 229//63 95//66 
f 221//67 222//65 94//68 
f 220//69 221//67 97//70 
f 219//71 220//69 100//72 
f 218//73 219//71 99//74 
f 217//75 218//73 102//76 
f 216//77 217//75 104//78 
f 215//79 216//77 106//80 
f 194//81 215//79 115//82 
f 192//83 194//81 39//84 
f 193//85 192//83 38//86 
f 202//87 193//85 41//88 
f 201//89 202//87 62//90 
f 185//91 201//89 64//92 
f 184//93 185//91 13//94 
f 183//95 184//93 12//96 
f 182//97 183//95 3//98 
f 180//99 182//97 2//100 
f 181//101 180//99 5//102 
f 179//103 181//101 16//104 
f 178//105 179//103 25//106 
f 177//107 178//105 24//108 
f 175//109 177//107 27//110 
f 176//111 175//109 29//112 
f 200//113 176//111 31//114 
f 198//115 200//113 83//116 
f 199//117 198//115 108//118 
f 206//119 199//117 86//120 
f 205//121 206//119 85//122 
f 204//123 205//121 88//124 
f 203//125 204//123 90//126 
f 197//127 203//125 45//128 
f 196//129 197//127 44//130 
f 191//131 196//129 47//132 
f 189//133 191//131 50//134 
f 190//135 189//133 49//136 
f 195//137 190//135 52//138 
f 188//139 195//137 68//140 
f 186//141 188//139 71//142 
f 187//143 186//141 70//144 
f 214//145 187//143 34//146 
f 212//147 214//145 33//148 
f 213//149 212//147 36//150 
f 231//151 213//149 54//152 
f 230//153 231//151 74//154 
f 228//155 230//153 76//156 
f 211//157 228//155 8//158 
f 210//159 211//157 7//160 
f 209//161 210//159 10//162 
f 207//163 209//161 18//164 
f 208//165 207//163 20//166 
f 227//167 208//165 22//168 
f 226//169 227//167 56//170 
f 225//171 226//169 58//172 
f 223//173 225//171 60//174 
f 224//62 223//173 79//173 
f 79//173 81//62 224//62 
f 60//174 79//173 223//173 
f 58//172 60//174 225//171 
f 56//170 58//172 226//169 
f 22//168 56//170 227//167 
f 20//166 22//168 208//165 
f 18//164 20//166 207//163 
f 10//162 18//164 209//161 
f 7//160 10//162 210//159 
f 8//158 7//160 211//157 
f 76//156 8//158 228//155 
f 74//154 76//156 230//153 
f 54//152 74//154 231//151 
f 36//150 54//152 213//149 
f 33//148 36//150 212//147 
f 34//146 33//148 214//145 
f 70//144 34//146 187//143 
f 71//142 70//144 186//141 
f 68//140 71//142 188//139 
f 52//138 68//140 195//137 
f 49//136 52//138 190//135 
f 50//134 49//136 189//133 
f 47//132 50//134 191//131 
f 44//130 47//132 196//129 
f 45//128 44//130 197//127 
f 90//126 45//128 203//125 
f 88//124 90//126 204//123 
f 85//122 88//124 205//121 
f 86//120 85//122 206//119 
f 108//118 86//120 199//117 
f 83//116 108//118 198//115 
f 31//114 83//116 200//113 
f 29//112 31//114 176//111 
f 27//110 29//112 175//109 
f 24//108 27//110 177//107 
f 25//106 24//108 178//105 
f 16//104 25//106 179//103 
f 5//102 16//104 181//101 
f 2//100 5//102 180//99 
f 3//98 2//100 182//97 
f 12//96 3//98 183//95 
f 13//94 12//96 184//93 
f 64//92 13//94 185//91 
f 62//90 64//92 201//89 
f 41//88 62//90 202//87 
f 38//86 41//88 193//85 
f 39//84 38//86 192//83 
f 115//82 39//84 194//81 
f 106//80 115//82 215//79 
f 104//78 106//80 216//77 
f 102//76 104//78 217//75 
f 99//74 102//76 218//73 
f 100//72 99//74 219//71 
f 97//70 100//72 220//69 
f 94//68 97//70 221//67 
f 95//66 94//68 222//65 
f 111//64 95//66 229//63 
f 81//62 111//64 232//61 
