%TF.GenerationSoftware,KiCad,Pcbnew,10.0.1*%
%TF.CreationDate,2026-05-21T07:36:24-05:00*%
%TF.ProjectId,Final PCB Design,46696e61-6c20-4504-9342-204465736967,rev?*%
%TF.SameCoordinates,Original*%
%TF.FileFunction,Soldermask,Top*%
%TF.FilePolarity,Negative*%
%FSLAX46Y46*%
G04 Gerber Fmt 4.6, Leading zero omitted, Abs format (unit mm)*
G04 Created by KiCad (PCBNEW 10.0.1) date 2026-05-21 07:36:24*
%MOMM*%
%LPD*%
G01*
G04 APERTURE LIST*
G04 Aperture macros list*
%AMRoundRect*
0 Rectangle with rounded corners*
0 $1 Rounding radius*
0 $2 $3 $4 $5 $6 $7 $8 $9 X,Y pos of 4 corners*
0 Add a 4 corners polygon primitive as box body*
4,1,4,$2,$3,$4,$5,$6,$7,$8,$9,$2,$3,0*
0 Add four circle primitives for the rounded corners*
1,1,$1+$1,$2,$3*
1,1,$1+$1,$4,$5*
1,1,$1+$1,$6,$7*
1,1,$1+$1,$8,$9*
0 Add four rect primitives between the rounded corners*
20,1,$1+$1,$2,$3,$4,$5,0*
20,1,$1+$1,$4,$5,$6,$7,0*
20,1,$1+$1,$6,$7,$8,$9,0*
20,1,$1+$1,$8,$9,$2,$3,0*%
G04 Aperture macros list end*
%ADD10RoundRect,0.190500X-1.079500X-0.444500X1.079500X-0.444500X1.079500X0.444500X-1.079500X0.444500X0*%
%ADD11C,2.200000*%
%ADD12R,1.700000X1.700000*%
%ADD13C,1.700000*%
%ADD14RoundRect,0.225000X0.250000X-0.225000X0.250000X0.225000X-0.250000X0.225000X-0.250000X-0.225000X0*%
%ADD15RoundRect,0.200000X-0.200000X-0.275000X0.200000X-0.275000X0.200000X0.275000X-0.200000X0.275000X0*%
%ADD16RoundRect,0.225000X-0.225000X-0.250000X0.225000X-0.250000X0.225000X0.250000X-0.225000X0.250000X0*%
%ADD17RoundRect,0.102000X-0.750000X-0.300000X0.750000X-0.300000X0.750000X0.300000X-0.750000X0.300000X0*%
G04 APERTURE END LIST*
D10*
%TO.C,REF\u002A\u002A*%
X74000000Y-31000000D03*
X74000000Y-33000000D03*
X74000000Y-35000000D03*
X74000000Y-37000000D03*
%TD*%
D11*
%TO.C,REF\u002A\u002A*%
X18000000Y-81500000D03*
%TD*%
D12*
%TO.C,REF\u002A\u002A*%
X44000000Y-25220000D03*
D13*
X44000000Y-27760000D03*
X44000000Y-30300000D03*
X44000000Y-32840000D03*
X44000000Y-35380000D03*
X44000000Y-37920000D03*
X44000000Y-40460000D03*
X44000000Y-43000000D03*
%TD*%
D11*
%TO.C,REF\u002A\u002A*%
X274000000Y-139000000D03*
%TD*%
D14*
%TO.C,0.1 uF*%
X107500000Y-24775000D03*
X107500000Y-23225000D03*
%TD*%
D12*
%TO.C,REF\u002A\u002A*%
X63500000Y-54800000D03*
D13*
X63500000Y-57340000D03*
X63500000Y-59880000D03*
X63500000Y-62420000D03*
X63500000Y-64960000D03*
X63500000Y-67500000D03*
X63500000Y-70040000D03*
X63500000Y-72580000D03*
%TD*%
D11*
%TO.C,REF\u002A\u002A*%
X18000000Y-18500000D03*
%TD*%
D15*
%TO.C,120*%
X120175000Y-29000000D03*
X121825000Y-29000000D03*
%TD*%
D12*
%TO.C,REF\u002A\u002A*%
X100000000Y-20000000D03*
D13*
X100000000Y-22540000D03*
X100000000Y-25080000D03*
X100000000Y-27620000D03*
X100000000Y-30160000D03*
X100000000Y-32700000D03*
X100000000Y-35240000D03*
X100000000Y-37780000D03*
X100000000Y-40320000D03*
X100000000Y-42860000D03*
X100000000Y-45400000D03*
X100000000Y-47940000D03*
X100000000Y-50480000D03*
X100000000Y-53020000D03*
X100000000Y-55560000D03*
X100000000Y-58100000D03*
X100000000Y-60640000D03*
X100000000Y-63180000D03*
X100000000Y-65720000D03*
X100000000Y-68260000D03*
X100000000Y-70800000D03*
X100000000Y-73340000D03*
X100000000Y-75880000D03*
X100000000Y-78420000D03*
%TD*%
D12*
%TO.C,REF\u002A\u002A*%
X63000000Y-25260000D03*
D13*
X63000000Y-27800000D03*
X63000000Y-30340000D03*
X63000000Y-32880000D03*
X63000000Y-35420000D03*
X63000000Y-37960000D03*
X63000000Y-40500000D03*
X63000000Y-43040000D03*
%TD*%
D16*
%TO.C,0.1 uF*%
X113225000Y-39000000D03*
X114775000Y-39000000D03*
%TD*%
D11*
%TO.C,REF\u002A\u002A*%
X137000000Y-19000000D03*
%TD*%
D10*
%TO.C,REF\u002A\u002A*%
X73500000Y-60500000D03*
X73500000Y-62500000D03*
X73500000Y-64500000D03*
X73500000Y-66500000D03*
%TD*%
D12*
%TO.C,REF\u002A\u002A*%
X84760000Y-20000000D03*
D13*
X84760000Y-22540000D03*
X84760000Y-25080000D03*
X84760000Y-27620000D03*
X84760000Y-30160000D03*
X84760000Y-32700000D03*
X84760000Y-35240000D03*
X84760000Y-37780000D03*
X84760000Y-40320000D03*
X84760000Y-42860000D03*
X84760000Y-45400000D03*
X84760000Y-47940000D03*
X84760000Y-50480000D03*
X84760000Y-53020000D03*
X84760000Y-55560000D03*
X84760000Y-58100000D03*
X84760000Y-60640000D03*
X84760000Y-63180000D03*
X84760000Y-65720000D03*
X84760000Y-68260000D03*
X84760000Y-70800000D03*
X84760000Y-73340000D03*
X84760000Y-75880000D03*
X84760000Y-78420000D03*
%TD*%
D17*
%TO.C,REF\u002A\u002A*%
X111350000Y-29095000D03*
X111350000Y-30365000D03*
X111350000Y-31635000D03*
X111350000Y-32905000D03*
X116650000Y-32905000D03*
X116650000Y-31635000D03*
X116650000Y-30365000D03*
X116650000Y-29095000D03*
%TD*%
D10*
%TO.C,REF\u002A\u002A*%
X112500000Y-20000000D03*
X115500000Y-20000000D03*
X112500000Y-22000000D03*
X115500000Y-22000000D03*
X112500000Y-24000000D03*
X115500000Y-24000000D03*
%TD*%
D11*
%TO.C,REF\u002A\u002A*%
X137500000Y-82000000D03*
%TD*%
D12*
%TO.C,REF\u002A\u002A*%
X44500000Y-54760000D03*
D13*
X44500000Y-57300000D03*
X44500000Y-59840000D03*
X44500000Y-62380000D03*
X44500000Y-64920000D03*
X44500000Y-67460000D03*
X44500000Y-70000000D03*
X44500000Y-72540000D03*
%TD*%
M02*
