M48
; DRILL file KiCad 10.0.1 date 2026-05-21T07:36:41
; FORMAT={-:-/ absolute / metric / decimal}
; #@! TF.CreationDate,2026-05-21T07:36:41-05:00
; #@! TF.GenerationSoftware,Kicad,Pcbnew,10.0.1
; #@! TF.FileFunction,Plated,1,2,PTH
FMAT,2
METRIC
; #@! TA.AperFunction,Plated,PTH,ViaDrill
T1C0.300
; #@! TA.AperFunction,Plated,PTH,ComponentDrill
T2C0.800
; #@! TA.AperFunction,Plated,PTH,ComponentDrill
T3C1.000
%
G90
G05
T1
X27.5Y-79.5
X33.0Y-48.5
X33.0Y-52.0
X35.0Y-82.5
X37.2Y-57.3
X38.0Y-31.5
X39.0Y-37.0
X39.5Y-70.0
X40.0Y-60.0
X66.42Y-35.42
X66.5Y-64.5
X68.0Y-40.5
X75.0Y-21.5
X75.0Y-51.0
X75.5Y-48.0
X75.5Y-52.5
X76.0Y-17.5
X77.0Y-31.0
X77.0Y-56.0
X77.0Y-76.5
X78.5Y-52.0
X78.5Y-61.5
X79.0Y-48.0
X80.0Y-38.0
X108.0Y-30.0
X108.26Y-44.76
X111.0Y-33.0
T2
X73.5Y-60.5
X73.5Y-62.5
X73.5Y-64.5
X73.5Y-66.5
X74.0Y-31.0
X74.0Y-33.0
X74.0Y-35.0
X74.0Y-37.0
X112.5Y-20.0
X112.5Y-22.0
X112.5Y-24.0
X115.5Y-20.0
X115.5Y-22.0
X115.5Y-24.0
T3
X44.0Y-25.22
X44.0Y-27.76
X44.0Y-30.3
X44.0Y-32.84
X44.0Y-35.38
X44.0Y-37.92
X44.0Y-40.46
X44.0Y-43.0
X44.5Y-54.76
X44.5Y-57.3
X44.5Y-59.84
X44.5Y-62.38
X44.5Y-64.92
X44.5Y-67.46
X44.5Y-70.0
X44.5Y-72.54
X63.0Y-25.26
X63.0Y-27.8
X63.0Y-30.34
X63.0Y-32.88
X63.0Y-35.42
X63.0Y-37.96
X63.0Y-40.5
X63.0Y-43.04
X63.5Y-54.8
X63.5Y-57.34
X63.5Y-59.88
X63.5Y-62.42
X63.5Y-64.96
X63.5Y-67.5
X63.5Y-70.04
X63.5Y-72.58
X84.76Y-20.0
X84.76Y-22.54
X84.76Y-25.08
X84.76Y-27.62
X84.76Y-30.16
X84.76Y-32.7
X84.76Y-35.24
X84.76Y-37.78
X84.76Y-40.32
X84.76Y-42.86
X84.76Y-45.4
X84.76Y-47.94
X84.76Y-50.48
X84.76Y-53.02
X84.76Y-55.56
X84.76Y-58.1
X84.76Y-60.64
X84.76Y-63.18
X84.76Y-65.72
X84.76Y-68.26
X84.76Y-70.8
X84.76Y-73.34
X84.76Y-75.88
X84.76Y-78.42
X100.0Y-20.0
X100.0Y-22.54
X100.0Y-25.08
X100.0Y-27.62
X100.0Y-30.16
X100.0Y-32.7
X100.0Y-35.24
X100.0Y-37.78
X100.0Y-40.32
X100.0Y-42.86
X100.0Y-45.4
X100.0Y-47.94
X100.0Y-50.48
X100.0Y-53.02
X100.0Y-55.56
X100.0Y-58.1
X100.0Y-60.64
X100.0Y-63.18
X100.0Y-65.72
X100.0Y-68.26
X100.0Y-70.8
X100.0Y-73.34
X100.0Y-75.88
X100.0Y-78.42
M30
