%TF.GenerationSoftware,KiCad,Pcbnew,10.0.1*%
%TF.CreationDate,2026-05-21T07:36:23-05:00*%
%TF.ProjectId,Final PCB Design,46696e61-6c20-4504-9342-204465736967,rev?*%
%TF.SameCoordinates,Original*%
%TF.FileFunction,Legend,Top*%
%TF.FilePolarity,Positive*%
%FSLAX46Y46*%
G04 Gerber Fmt 4.6, Leading zero omitted, Abs format (unit mm)*
G04 Created by KiCad (PCBNEW 10.0.1) date 2026-05-21 07:36:23*
%MOMM*%
%LPD*%
G01*
G04 APERTURE LIST*
%ADD10C,0.100000*%
%ADD11C,0.150000*%
%ADD12C,0.120000*%
%ADD13C,0.200000*%
%ADD14C,0.050000*%
G04 APERTURE END LIST*
D10*
X62666666Y-28957419D02*
X62333333Y-28481228D01*
X62095238Y-28957419D02*
X62095238Y-27957419D01*
X62095238Y-27957419D02*
X62476190Y-27957419D01*
X62476190Y-27957419D02*
X62571428Y-28005038D01*
X62571428Y-28005038D02*
X62619047Y-28052657D01*
X62619047Y-28052657D02*
X62666666Y-28147895D01*
X62666666Y-28147895D02*
X62666666Y-28290752D01*
X62666666Y-28290752D02*
X62619047Y-28385990D01*
X62619047Y-28385990D02*
X62571428Y-28433609D01*
X62571428Y-28433609D02*
X62476190Y-28481228D01*
X62476190Y-28481228D02*
X62095238Y-28481228D01*
X63095238Y-28433609D02*
X63428571Y-28433609D01*
X63571428Y-28957419D02*
X63095238Y-28957419D01*
X63095238Y-28957419D02*
X63095238Y-27957419D01*
X63095238Y-27957419D02*
X63571428Y-27957419D01*
X64333333Y-28433609D02*
X64000000Y-28433609D01*
X64000000Y-28957419D02*
X64000000Y-27957419D01*
X64000000Y-27957419D02*
X64476190Y-27957419D01*
X65000000Y-27957419D02*
X65000000Y-28195514D01*
X64761905Y-28100276D02*
X65000000Y-28195514D01*
X65000000Y-28195514D02*
X65238095Y-28100276D01*
X64857143Y-28385990D02*
X65000000Y-28195514D01*
X65000000Y-28195514D02*
X65142857Y-28385990D01*
X65761905Y-27957419D02*
X65761905Y-28195514D01*
X65523810Y-28100276D02*
X65761905Y-28195514D01*
X65761905Y-28195514D02*
X66000000Y-28100276D01*
X65619048Y-28385990D02*
X65761905Y-28195514D01*
X65761905Y-28195514D02*
X65904762Y-28385990D01*
D11*
X16666666Y-78804819D02*
X16333333Y-78328628D01*
X16095238Y-78804819D02*
X16095238Y-77804819D01*
X16095238Y-77804819D02*
X16476190Y-77804819D01*
X16476190Y-77804819D02*
X16571428Y-77852438D01*
X16571428Y-77852438D02*
X16619047Y-77900057D01*
X16619047Y-77900057D02*
X16666666Y-77995295D01*
X16666666Y-77995295D02*
X16666666Y-78138152D01*
X16666666Y-78138152D02*
X16619047Y-78233390D01*
X16619047Y-78233390D02*
X16571428Y-78281009D01*
X16571428Y-78281009D02*
X16476190Y-78328628D01*
X16476190Y-78328628D02*
X16095238Y-78328628D01*
X17095238Y-78281009D02*
X17428571Y-78281009D01*
X17571428Y-78804819D02*
X17095238Y-78804819D01*
X17095238Y-78804819D02*
X17095238Y-77804819D01*
X17095238Y-77804819D02*
X17571428Y-77804819D01*
X18333333Y-78281009D02*
X18000000Y-78281009D01*
X18000000Y-78804819D02*
X18000000Y-77804819D01*
X18000000Y-77804819D02*
X18476190Y-77804819D01*
X19000000Y-77804819D02*
X19000000Y-78042914D01*
X18761905Y-77947676D02*
X19000000Y-78042914D01*
X19000000Y-78042914D02*
X19238095Y-77947676D01*
X18857143Y-78233390D02*
X19000000Y-78042914D01*
X19000000Y-78042914D02*
X19142857Y-78233390D01*
X19761905Y-77804819D02*
X19761905Y-78042914D01*
X19523810Y-77947676D02*
X19761905Y-78042914D01*
X19761905Y-78042914D02*
X20000000Y-77947676D01*
X19619048Y-78233390D02*
X19761905Y-78042914D01*
X19761905Y-78042914D02*
X19904762Y-78233390D01*
X42666666Y-22904819D02*
X42333333Y-22428628D01*
X42095238Y-22904819D02*
X42095238Y-21904819D01*
X42095238Y-21904819D02*
X42476190Y-21904819D01*
X42476190Y-21904819D02*
X42571428Y-21952438D01*
X42571428Y-21952438D02*
X42619047Y-22000057D01*
X42619047Y-22000057D02*
X42666666Y-22095295D01*
X42666666Y-22095295D02*
X42666666Y-22238152D01*
X42666666Y-22238152D02*
X42619047Y-22333390D01*
X42619047Y-22333390D02*
X42571428Y-22381009D01*
X42571428Y-22381009D02*
X42476190Y-22428628D01*
X42476190Y-22428628D02*
X42095238Y-22428628D01*
X43095238Y-22381009D02*
X43428571Y-22381009D01*
X43571428Y-22904819D02*
X43095238Y-22904819D01*
X43095238Y-22904819D02*
X43095238Y-21904819D01*
X43095238Y-21904819D02*
X43571428Y-21904819D01*
X44333333Y-22381009D02*
X44000000Y-22381009D01*
X44000000Y-22904819D02*
X44000000Y-21904819D01*
X44000000Y-21904819D02*
X44476190Y-21904819D01*
X45000000Y-21904819D02*
X45000000Y-22142914D01*
X44761905Y-22047676D02*
X45000000Y-22142914D01*
X45000000Y-22142914D02*
X45238095Y-22047676D01*
X44857143Y-22333390D02*
X45000000Y-22142914D01*
X45000000Y-22142914D02*
X45142857Y-22333390D01*
X45761905Y-21904819D02*
X45761905Y-22142914D01*
X45523810Y-22047676D02*
X45761905Y-22142914D01*
X45761905Y-22142914D02*
X46000000Y-22047676D01*
X45619048Y-22333390D02*
X45761905Y-22142914D01*
X45761905Y-22142914D02*
X45904762Y-22333390D01*
X272666666Y-136304819D02*
X272333333Y-135828628D01*
X272095238Y-136304819D02*
X272095238Y-135304819D01*
X272095238Y-135304819D02*
X272476190Y-135304819D01*
X272476190Y-135304819D02*
X272571428Y-135352438D01*
X272571428Y-135352438D02*
X272619047Y-135400057D01*
X272619047Y-135400057D02*
X272666666Y-135495295D01*
X272666666Y-135495295D02*
X272666666Y-135638152D01*
X272666666Y-135638152D02*
X272619047Y-135733390D01*
X272619047Y-135733390D02*
X272571428Y-135781009D01*
X272571428Y-135781009D02*
X272476190Y-135828628D01*
X272476190Y-135828628D02*
X272095238Y-135828628D01*
X273095238Y-135781009D02*
X273428571Y-135781009D01*
X273571428Y-136304819D02*
X273095238Y-136304819D01*
X273095238Y-136304819D02*
X273095238Y-135304819D01*
X273095238Y-135304819D02*
X273571428Y-135304819D01*
X274333333Y-135781009D02*
X274000000Y-135781009D01*
X274000000Y-136304819D02*
X274000000Y-135304819D01*
X274000000Y-135304819D02*
X274476190Y-135304819D01*
X275000000Y-135304819D02*
X275000000Y-135542914D01*
X274761905Y-135447676D02*
X275000000Y-135542914D01*
X275000000Y-135542914D02*
X275238095Y-135447676D01*
X274857143Y-135733390D02*
X275000000Y-135542914D01*
X275000000Y-135542914D02*
X275142857Y-135733390D01*
X275761905Y-135304819D02*
X275761905Y-135542914D01*
X275523810Y-135447676D02*
X275761905Y-135542914D01*
X275761905Y-135542914D02*
X276000000Y-135447676D01*
X275619048Y-135733390D02*
X275761905Y-135542914D01*
X275761905Y-135542914D02*
X275904762Y-135733390D01*
X105524819Y-26023809D02*
X105524819Y-25928571D01*
X105524819Y-25928571D02*
X105572438Y-25833333D01*
X105572438Y-25833333D02*
X105620057Y-25785714D01*
X105620057Y-25785714D02*
X105715295Y-25738095D01*
X105715295Y-25738095D02*
X105905771Y-25690476D01*
X105905771Y-25690476D02*
X106143866Y-25690476D01*
X106143866Y-25690476D02*
X106334342Y-25738095D01*
X106334342Y-25738095D02*
X106429580Y-25785714D01*
X106429580Y-25785714D02*
X106477200Y-25833333D01*
X106477200Y-25833333D02*
X106524819Y-25928571D01*
X106524819Y-25928571D02*
X106524819Y-26023809D01*
X106524819Y-26023809D02*
X106477200Y-26119047D01*
X106477200Y-26119047D02*
X106429580Y-26166666D01*
X106429580Y-26166666D02*
X106334342Y-26214285D01*
X106334342Y-26214285D02*
X106143866Y-26261904D01*
X106143866Y-26261904D02*
X105905771Y-26261904D01*
X105905771Y-26261904D02*
X105715295Y-26214285D01*
X105715295Y-26214285D02*
X105620057Y-26166666D01*
X105620057Y-26166666D02*
X105572438Y-26119047D01*
X105572438Y-26119047D02*
X105524819Y-26023809D01*
X106429580Y-25261904D02*
X106477200Y-25214285D01*
X106477200Y-25214285D02*
X106524819Y-25261904D01*
X106524819Y-25261904D02*
X106477200Y-25309523D01*
X106477200Y-25309523D02*
X106429580Y-25261904D01*
X106429580Y-25261904D02*
X106524819Y-25261904D01*
X106524819Y-24261905D02*
X106524819Y-24833333D01*
X106524819Y-24547619D02*
X105524819Y-24547619D01*
X105524819Y-24547619D02*
X105667676Y-24642857D01*
X105667676Y-24642857D02*
X105762914Y-24738095D01*
X105762914Y-24738095D02*
X105810533Y-24833333D01*
X105858152Y-22642857D02*
X106524819Y-22642857D01*
X105858152Y-23071428D02*
X106381961Y-23071428D01*
X106381961Y-23071428D02*
X106477200Y-23023809D01*
X106477200Y-23023809D02*
X106524819Y-22928571D01*
X106524819Y-22928571D02*
X106524819Y-22785714D01*
X106524819Y-22785714D02*
X106477200Y-22690476D01*
X106477200Y-22690476D02*
X106429580Y-22642857D01*
X106001009Y-21833333D02*
X106001009Y-22166666D01*
X106524819Y-22166666D02*
X105524819Y-22166666D01*
X105524819Y-22166666D02*
X105524819Y-21690476D01*
X62166666Y-52484819D02*
X61833333Y-52008628D01*
X61595238Y-52484819D02*
X61595238Y-51484819D01*
X61595238Y-51484819D02*
X61976190Y-51484819D01*
X61976190Y-51484819D02*
X62071428Y-51532438D01*
X62071428Y-51532438D02*
X62119047Y-51580057D01*
X62119047Y-51580057D02*
X62166666Y-51675295D01*
X62166666Y-51675295D02*
X62166666Y-51818152D01*
X62166666Y-51818152D02*
X62119047Y-51913390D01*
X62119047Y-51913390D02*
X62071428Y-51961009D01*
X62071428Y-51961009D02*
X61976190Y-52008628D01*
X61976190Y-52008628D02*
X61595238Y-52008628D01*
X62595238Y-51961009D02*
X62928571Y-51961009D01*
X63071428Y-52484819D02*
X62595238Y-52484819D01*
X62595238Y-52484819D02*
X62595238Y-51484819D01*
X62595238Y-51484819D02*
X63071428Y-51484819D01*
X63833333Y-51961009D02*
X63500000Y-51961009D01*
X63500000Y-52484819D02*
X63500000Y-51484819D01*
X63500000Y-51484819D02*
X63976190Y-51484819D01*
X64500000Y-51484819D02*
X64500000Y-51722914D01*
X64261905Y-51627676D02*
X64500000Y-51722914D01*
X64500000Y-51722914D02*
X64738095Y-51627676D01*
X64357143Y-51913390D02*
X64500000Y-51722914D01*
X64500000Y-51722914D02*
X64642857Y-51913390D01*
X65261905Y-51484819D02*
X65261905Y-51722914D01*
X65023810Y-51627676D02*
X65261905Y-51722914D01*
X65261905Y-51722914D02*
X65500000Y-51627676D01*
X65119048Y-51913390D02*
X65261905Y-51722914D01*
X65261905Y-51722914D02*
X65404762Y-51913390D01*
X16666666Y-15804819D02*
X16333333Y-15328628D01*
X16095238Y-15804819D02*
X16095238Y-14804819D01*
X16095238Y-14804819D02*
X16476190Y-14804819D01*
X16476190Y-14804819D02*
X16571428Y-14852438D01*
X16571428Y-14852438D02*
X16619047Y-14900057D01*
X16619047Y-14900057D02*
X16666666Y-14995295D01*
X16666666Y-14995295D02*
X16666666Y-15138152D01*
X16666666Y-15138152D02*
X16619047Y-15233390D01*
X16619047Y-15233390D02*
X16571428Y-15281009D01*
X16571428Y-15281009D02*
X16476190Y-15328628D01*
X16476190Y-15328628D02*
X16095238Y-15328628D01*
X17095238Y-15281009D02*
X17428571Y-15281009D01*
X17571428Y-15804819D02*
X17095238Y-15804819D01*
X17095238Y-15804819D02*
X17095238Y-14804819D01*
X17095238Y-14804819D02*
X17571428Y-14804819D01*
X18333333Y-15281009D02*
X18000000Y-15281009D01*
X18000000Y-15804819D02*
X18000000Y-14804819D01*
X18000000Y-14804819D02*
X18476190Y-14804819D01*
X19000000Y-14804819D02*
X19000000Y-15042914D01*
X18761905Y-14947676D02*
X19000000Y-15042914D01*
X19000000Y-15042914D02*
X19238095Y-14947676D01*
X18857143Y-15233390D02*
X19000000Y-15042914D01*
X19000000Y-15042914D02*
X19142857Y-15233390D01*
X19761905Y-14804819D02*
X19761905Y-15042914D01*
X19523810Y-14947676D02*
X19761905Y-15042914D01*
X19761905Y-15042914D02*
X20000000Y-14947676D01*
X19619048Y-15233390D02*
X19761905Y-15042914D01*
X19761905Y-15042914D02*
X19904762Y-15233390D01*
X120333333Y-28024819D02*
X119761905Y-28024819D01*
X120047619Y-28024819D02*
X120047619Y-27024819D01*
X120047619Y-27024819D02*
X119952381Y-27167676D01*
X119952381Y-27167676D02*
X119857143Y-27262914D01*
X119857143Y-27262914D02*
X119761905Y-27310533D01*
X120714286Y-27120057D02*
X120761905Y-27072438D01*
X120761905Y-27072438D02*
X120857143Y-27024819D01*
X120857143Y-27024819D02*
X121095238Y-27024819D01*
X121095238Y-27024819D02*
X121190476Y-27072438D01*
X121190476Y-27072438D02*
X121238095Y-27120057D01*
X121238095Y-27120057D02*
X121285714Y-27215295D01*
X121285714Y-27215295D02*
X121285714Y-27310533D01*
X121285714Y-27310533D02*
X121238095Y-27453390D01*
X121238095Y-27453390D02*
X120666667Y-28024819D01*
X120666667Y-28024819D02*
X121285714Y-28024819D01*
X121904762Y-27024819D02*
X122000000Y-27024819D01*
X122000000Y-27024819D02*
X122095238Y-27072438D01*
X122095238Y-27072438D02*
X122142857Y-27120057D01*
X122142857Y-27120057D02*
X122190476Y-27215295D01*
X122190476Y-27215295D02*
X122238095Y-27405771D01*
X122238095Y-27405771D02*
X122238095Y-27643866D01*
X122238095Y-27643866D02*
X122190476Y-27834342D01*
X122190476Y-27834342D02*
X122142857Y-27929580D01*
X122142857Y-27929580D02*
X122095238Y-27977200D01*
X122095238Y-27977200D02*
X122000000Y-28024819D01*
X122000000Y-28024819D02*
X121904762Y-28024819D01*
X121904762Y-28024819D02*
X121809524Y-27977200D01*
X121809524Y-27977200D02*
X121761905Y-27929580D01*
X121761905Y-27929580D02*
X121714286Y-27834342D01*
X121714286Y-27834342D02*
X121666667Y-27643866D01*
X121666667Y-27643866D02*
X121666667Y-27405771D01*
X121666667Y-27405771D02*
X121714286Y-27215295D01*
X121714286Y-27215295D02*
X121761905Y-27120057D01*
X121761905Y-27120057D02*
X121809524Y-27072438D01*
X121809524Y-27072438D02*
X121904762Y-27024819D01*
X98666666Y-17684819D02*
X98333333Y-17208628D01*
X98095238Y-17684819D02*
X98095238Y-16684819D01*
X98095238Y-16684819D02*
X98476190Y-16684819D01*
X98476190Y-16684819D02*
X98571428Y-16732438D01*
X98571428Y-16732438D02*
X98619047Y-16780057D01*
X98619047Y-16780057D02*
X98666666Y-16875295D01*
X98666666Y-16875295D02*
X98666666Y-17018152D01*
X98666666Y-17018152D02*
X98619047Y-17113390D01*
X98619047Y-17113390D02*
X98571428Y-17161009D01*
X98571428Y-17161009D02*
X98476190Y-17208628D01*
X98476190Y-17208628D02*
X98095238Y-17208628D01*
X99095238Y-17161009D02*
X99428571Y-17161009D01*
X99571428Y-17684819D02*
X99095238Y-17684819D01*
X99095238Y-17684819D02*
X99095238Y-16684819D01*
X99095238Y-16684819D02*
X99571428Y-16684819D01*
X100333333Y-17161009D02*
X100000000Y-17161009D01*
X100000000Y-17684819D02*
X100000000Y-16684819D01*
X100000000Y-16684819D02*
X100476190Y-16684819D01*
X101000000Y-16684819D02*
X101000000Y-16922914D01*
X100761905Y-16827676D02*
X101000000Y-16922914D01*
X101000000Y-16922914D02*
X101238095Y-16827676D01*
X100857143Y-17113390D02*
X101000000Y-16922914D01*
X101000000Y-16922914D02*
X101142857Y-17113390D01*
X101761905Y-16684819D02*
X101761905Y-16922914D01*
X101523810Y-16827676D02*
X101761905Y-16922914D01*
X101761905Y-16922914D02*
X102000000Y-16827676D01*
X101619048Y-17113390D02*
X101761905Y-16922914D01*
X101761905Y-16922914D02*
X101904762Y-17113390D01*
X61666666Y-22944819D02*
X61333333Y-22468628D01*
X61095238Y-22944819D02*
X61095238Y-21944819D01*
X61095238Y-21944819D02*
X61476190Y-21944819D01*
X61476190Y-21944819D02*
X61571428Y-21992438D01*
X61571428Y-21992438D02*
X61619047Y-22040057D01*
X61619047Y-22040057D02*
X61666666Y-22135295D01*
X61666666Y-22135295D02*
X61666666Y-22278152D01*
X61666666Y-22278152D02*
X61619047Y-22373390D01*
X61619047Y-22373390D02*
X61571428Y-22421009D01*
X61571428Y-22421009D02*
X61476190Y-22468628D01*
X61476190Y-22468628D02*
X61095238Y-22468628D01*
X62095238Y-22421009D02*
X62428571Y-22421009D01*
X62571428Y-22944819D02*
X62095238Y-22944819D01*
X62095238Y-22944819D02*
X62095238Y-21944819D01*
X62095238Y-21944819D02*
X62571428Y-21944819D01*
X63333333Y-22421009D02*
X63000000Y-22421009D01*
X63000000Y-22944819D02*
X63000000Y-21944819D01*
X63000000Y-21944819D02*
X63476190Y-21944819D01*
X64000000Y-21944819D02*
X64000000Y-22182914D01*
X63761905Y-22087676D02*
X64000000Y-22182914D01*
X64000000Y-22182914D02*
X64238095Y-22087676D01*
X63857143Y-22373390D02*
X64000000Y-22182914D01*
X64000000Y-22182914D02*
X64142857Y-22373390D01*
X64761905Y-21944819D02*
X64761905Y-22182914D01*
X64523810Y-22087676D02*
X64761905Y-22182914D01*
X64761905Y-22182914D02*
X65000000Y-22087676D01*
X64619048Y-22373390D02*
X64761905Y-22182914D01*
X64761905Y-22182914D02*
X64904762Y-22373390D01*
X111976190Y-37024819D02*
X112071428Y-37024819D01*
X112071428Y-37024819D02*
X112166666Y-37072438D01*
X112166666Y-37072438D02*
X112214285Y-37120057D01*
X112214285Y-37120057D02*
X112261904Y-37215295D01*
X112261904Y-37215295D02*
X112309523Y-37405771D01*
X112309523Y-37405771D02*
X112309523Y-37643866D01*
X112309523Y-37643866D02*
X112261904Y-37834342D01*
X112261904Y-37834342D02*
X112214285Y-37929580D01*
X112214285Y-37929580D02*
X112166666Y-37977200D01*
X112166666Y-37977200D02*
X112071428Y-38024819D01*
X112071428Y-38024819D02*
X111976190Y-38024819D01*
X111976190Y-38024819D02*
X111880952Y-37977200D01*
X111880952Y-37977200D02*
X111833333Y-37929580D01*
X111833333Y-37929580D02*
X111785714Y-37834342D01*
X111785714Y-37834342D02*
X111738095Y-37643866D01*
X111738095Y-37643866D02*
X111738095Y-37405771D01*
X111738095Y-37405771D02*
X111785714Y-37215295D01*
X111785714Y-37215295D02*
X111833333Y-37120057D01*
X111833333Y-37120057D02*
X111880952Y-37072438D01*
X111880952Y-37072438D02*
X111976190Y-37024819D01*
X112738095Y-37929580D02*
X112785714Y-37977200D01*
X112785714Y-37977200D02*
X112738095Y-38024819D01*
X112738095Y-38024819D02*
X112690476Y-37977200D01*
X112690476Y-37977200D02*
X112738095Y-37929580D01*
X112738095Y-37929580D02*
X112738095Y-38024819D01*
X113738094Y-38024819D02*
X113166666Y-38024819D01*
X113452380Y-38024819D02*
X113452380Y-37024819D01*
X113452380Y-37024819D02*
X113357142Y-37167676D01*
X113357142Y-37167676D02*
X113261904Y-37262914D01*
X113261904Y-37262914D02*
X113166666Y-37310533D01*
X115357142Y-37358152D02*
X115357142Y-38024819D01*
X114928571Y-37358152D02*
X114928571Y-37881961D01*
X114928571Y-37881961D02*
X114976190Y-37977200D01*
X114976190Y-37977200D02*
X115071428Y-38024819D01*
X115071428Y-38024819D02*
X115214285Y-38024819D01*
X115214285Y-38024819D02*
X115309523Y-37977200D01*
X115309523Y-37977200D02*
X115357142Y-37929580D01*
X116166666Y-37501009D02*
X115833333Y-37501009D01*
X115833333Y-38024819D02*
X115833333Y-37024819D01*
X115833333Y-37024819D02*
X116309523Y-37024819D01*
X135666666Y-16304819D02*
X135333333Y-15828628D01*
X135095238Y-16304819D02*
X135095238Y-15304819D01*
X135095238Y-15304819D02*
X135476190Y-15304819D01*
X135476190Y-15304819D02*
X135571428Y-15352438D01*
X135571428Y-15352438D02*
X135619047Y-15400057D01*
X135619047Y-15400057D02*
X135666666Y-15495295D01*
X135666666Y-15495295D02*
X135666666Y-15638152D01*
X135666666Y-15638152D02*
X135619047Y-15733390D01*
X135619047Y-15733390D02*
X135571428Y-15781009D01*
X135571428Y-15781009D02*
X135476190Y-15828628D01*
X135476190Y-15828628D02*
X135095238Y-15828628D01*
X136095238Y-15781009D02*
X136428571Y-15781009D01*
X136571428Y-16304819D02*
X136095238Y-16304819D01*
X136095238Y-16304819D02*
X136095238Y-15304819D01*
X136095238Y-15304819D02*
X136571428Y-15304819D01*
X137333333Y-15781009D02*
X137000000Y-15781009D01*
X137000000Y-16304819D02*
X137000000Y-15304819D01*
X137000000Y-15304819D02*
X137476190Y-15304819D01*
X138000000Y-15304819D02*
X138000000Y-15542914D01*
X137761905Y-15447676D02*
X138000000Y-15542914D01*
X138000000Y-15542914D02*
X138238095Y-15447676D01*
X137857143Y-15733390D02*
X138000000Y-15542914D01*
X138000000Y-15542914D02*
X138142857Y-15733390D01*
X138761905Y-15304819D02*
X138761905Y-15542914D01*
X138523810Y-15447676D02*
X138761905Y-15542914D01*
X138761905Y-15542914D02*
X139000000Y-15447676D01*
X138619048Y-15733390D02*
X138761905Y-15542914D01*
X138761905Y-15542914D02*
X138904762Y-15733390D01*
D10*
X62166666Y-58457419D02*
X61833333Y-57981228D01*
X61595238Y-58457419D02*
X61595238Y-57457419D01*
X61595238Y-57457419D02*
X61976190Y-57457419D01*
X61976190Y-57457419D02*
X62071428Y-57505038D01*
X62071428Y-57505038D02*
X62119047Y-57552657D01*
X62119047Y-57552657D02*
X62166666Y-57647895D01*
X62166666Y-57647895D02*
X62166666Y-57790752D01*
X62166666Y-57790752D02*
X62119047Y-57885990D01*
X62119047Y-57885990D02*
X62071428Y-57933609D01*
X62071428Y-57933609D02*
X61976190Y-57981228D01*
X61976190Y-57981228D02*
X61595238Y-57981228D01*
X62595238Y-57933609D02*
X62928571Y-57933609D01*
X63071428Y-58457419D02*
X62595238Y-58457419D01*
X62595238Y-58457419D02*
X62595238Y-57457419D01*
X62595238Y-57457419D02*
X63071428Y-57457419D01*
X63833333Y-57933609D02*
X63500000Y-57933609D01*
X63500000Y-58457419D02*
X63500000Y-57457419D01*
X63500000Y-57457419D02*
X63976190Y-57457419D01*
X64500000Y-57457419D02*
X64500000Y-57695514D01*
X64261905Y-57600276D02*
X64500000Y-57695514D01*
X64500000Y-57695514D02*
X64738095Y-57600276D01*
X64357143Y-57885990D02*
X64500000Y-57695514D01*
X64500000Y-57695514D02*
X64642857Y-57885990D01*
X65261905Y-57457419D02*
X65261905Y-57695514D01*
X65023810Y-57600276D02*
X65261905Y-57695514D01*
X65261905Y-57695514D02*
X65500000Y-57600276D01*
X65119048Y-57885990D02*
X65261905Y-57695514D01*
X65261905Y-57695514D02*
X65404762Y-57885990D01*
D11*
X83426666Y-17684819D02*
X83093333Y-17208628D01*
X82855238Y-17684819D02*
X82855238Y-16684819D01*
X82855238Y-16684819D02*
X83236190Y-16684819D01*
X83236190Y-16684819D02*
X83331428Y-16732438D01*
X83331428Y-16732438D02*
X83379047Y-16780057D01*
X83379047Y-16780057D02*
X83426666Y-16875295D01*
X83426666Y-16875295D02*
X83426666Y-17018152D01*
X83426666Y-17018152D02*
X83379047Y-17113390D01*
X83379047Y-17113390D02*
X83331428Y-17161009D01*
X83331428Y-17161009D02*
X83236190Y-17208628D01*
X83236190Y-17208628D02*
X82855238Y-17208628D01*
X83855238Y-17161009D02*
X84188571Y-17161009D01*
X84331428Y-17684819D02*
X83855238Y-17684819D01*
X83855238Y-17684819D02*
X83855238Y-16684819D01*
X83855238Y-16684819D02*
X84331428Y-16684819D01*
X85093333Y-17161009D02*
X84760000Y-17161009D01*
X84760000Y-17684819D02*
X84760000Y-16684819D01*
X84760000Y-16684819D02*
X85236190Y-16684819D01*
X85760000Y-16684819D02*
X85760000Y-16922914D01*
X85521905Y-16827676D02*
X85760000Y-16922914D01*
X85760000Y-16922914D02*
X85998095Y-16827676D01*
X85617143Y-17113390D02*
X85760000Y-16922914D01*
X85760000Y-16922914D02*
X85902857Y-17113390D01*
X86521905Y-16684819D02*
X86521905Y-16922914D01*
X86283810Y-16827676D02*
X86521905Y-16922914D01*
X86521905Y-16922914D02*
X86760000Y-16827676D01*
X86379048Y-17113390D02*
X86521905Y-16922914D01*
X86521905Y-16922914D02*
X86664762Y-17113390D01*
X112838302Y-27910910D02*
X112504003Y-27433339D01*
X112265218Y-27910910D02*
X112265218Y-26908012D01*
X112265218Y-26908012D02*
X112647274Y-26908012D01*
X112647274Y-26908012D02*
X112742788Y-26955769D01*
X112742788Y-26955769D02*
X112790545Y-27003526D01*
X112790545Y-27003526D02*
X112838302Y-27099040D01*
X112838302Y-27099040D02*
X112838302Y-27242311D01*
X112838302Y-27242311D02*
X112790545Y-27337825D01*
X112790545Y-27337825D02*
X112742788Y-27385582D01*
X112742788Y-27385582D02*
X112647274Y-27433339D01*
X112647274Y-27433339D02*
X112265218Y-27433339D01*
X113268116Y-27385582D02*
X113602415Y-27385582D01*
X113745686Y-27910910D02*
X113268116Y-27910910D01*
X113268116Y-27910910D02*
X113268116Y-26908012D01*
X113268116Y-26908012D02*
X113745686Y-26908012D01*
X114509799Y-27385582D02*
X114175500Y-27385582D01*
X114175500Y-27910910D02*
X114175500Y-26908012D01*
X114175500Y-26908012D02*
X114653070Y-26908012D01*
X115178398Y-26908012D02*
X115178398Y-27146797D01*
X114939613Y-27051283D02*
X115178398Y-27146797D01*
X115178398Y-27146797D02*
X115417183Y-27051283D01*
X115035127Y-27337825D02*
X115178398Y-27146797D01*
X115178398Y-27146797D02*
X115321669Y-27337825D01*
X115942511Y-26908012D02*
X115942511Y-27146797D01*
X115703726Y-27051283D02*
X115942511Y-27146797D01*
X115942511Y-27146797D02*
X116181296Y-27051283D01*
X115799240Y-27337825D02*
X115942511Y-27146797D01*
X115942511Y-27146797D02*
X116085782Y-27337825D01*
D10*
X99666666Y-18457419D02*
X99333333Y-17981228D01*
X99095238Y-18457419D02*
X99095238Y-17457419D01*
X99095238Y-17457419D02*
X99476190Y-17457419D01*
X99476190Y-17457419D02*
X99571428Y-17505038D01*
X99571428Y-17505038D02*
X99619047Y-17552657D01*
X99619047Y-17552657D02*
X99666666Y-17647895D01*
X99666666Y-17647895D02*
X99666666Y-17790752D01*
X99666666Y-17790752D02*
X99619047Y-17885990D01*
X99619047Y-17885990D02*
X99571428Y-17933609D01*
X99571428Y-17933609D02*
X99476190Y-17981228D01*
X99476190Y-17981228D02*
X99095238Y-17981228D01*
X100095238Y-17933609D02*
X100428571Y-17933609D01*
X100571428Y-18457419D02*
X100095238Y-18457419D01*
X100095238Y-18457419D02*
X100095238Y-17457419D01*
X100095238Y-17457419D02*
X100571428Y-17457419D01*
X101333333Y-17933609D02*
X101000000Y-17933609D01*
X101000000Y-18457419D02*
X101000000Y-17457419D01*
X101000000Y-17457419D02*
X101476190Y-17457419D01*
X102000000Y-17457419D02*
X102000000Y-17695514D01*
X101761905Y-17600276D02*
X102000000Y-17695514D01*
X102000000Y-17695514D02*
X102238095Y-17600276D01*
X101857143Y-17885990D02*
X102000000Y-17695514D01*
X102000000Y-17695514D02*
X102142857Y-17885990D01*
X102761905Y-17457419D02*
X102761905Y-17695514D01*
X102523810Y-17600276D02*
X102761905Y-17695514D01*
X102761905Y-17695514D02*
X103000000Y-17600276D01*
X102619048Y-17885990D02*
X102761905Y-17695514D01*
X102761905Y-17695514D02*
X102904762Y-17885990D01*
D11*
X136166666Y-79304819D02*
X135833333Y-78828628D01*
X135595238Y-79304819D02*
X135595238Y-78304819D01*
X135595238Y-78304819D02*
X135976190Y-78304819D01*
X135976190Y-78304819D02*
X136071428Y-78352438D01*
X136071428Y-78352438D02*
X136119047Y-78400057D01*
X136119047Y-78400057D02*
X136166666Y-78495295D01*
X136166666Y-78495295D02*
X136166666Y-78638152D01*
X136166666Y-78638152D02*
X136119047Y-78733390D01*
X136119047Y-78733390D02*
X136071428Y-78781009D01*
X136071428Y-78781009D02*
X135976190Y-78828628D01*
X135976190Y-78828628D02*
X135595238Y-78828628D01*
X136595238Y-78781009D02*
X136928571Y-78781009D01*
X137071428Y-79304819D02*
X136595238Y-79304819D01*
X136595238Y-79304819D02*
X136595238Y-78304819D01*
X136595238Y-78304819D02*
X137071428Y-78304819D01*
X137833333Y-78781009D02*
X137500000Y-78781009D01*
X137500000Y-79304819D02*
X137500000Y-78304819D01*
X137500000Y-78304819D02*
X137976190Y-78304819D01*
X138500000Y-78304819D02*
X138500000Y-78542914D01*
X138261905Y-78447676D02*
X138500000Y-78542914D01*
X138500000Y-78542914D02*
X138738095Y-78447676D01*
X138357143Y-78733390D02*
X138500000Y-78542914D01*
X138500000Y-78542914D02*
X138642857Y-78733390D01*
X139261905Y-78304819D02*
X139261905Y-78542914D01*
X139023810Y-78447676D02*
X139261905Y-78542914D01*
X139261905Y-78542914D02*
X139500000Y-78447676D01*
X139119048Y-78733390D02*
X139261905Y-78542914D01*
X139261905Y-78542914D02*
X139404762Y-78733390D01*
X43166666Y-52444819D02*
X42833333Y-51968628D01*
X42595238Y-52444819D02*
X42595238Y-51444819D01*
X42595238Y-51444819D02*
X42976190Y-51444819D01*
X42976190Y-51444819D02*
X43071428Y-51492438D01*
X43071428Y-51492438D02*
X43119047Y-51540057D01*
X43119047Y-51540057D02*
X43166666Y-51635295D01*
X43166666Y-51635295D02*
X43166666Y-51778152D01*
X43166666Y-51778152D02*
X43119047Y-51873390D01*
X43119047Y-51873390D02*
X43071428Y-51921009D01*
X43071428Y-51921009D02*
X42976190Y-51968628D01*
X42976190Y-51968628D02*
X42595238Y-51968628D01*
X43595238Y-51921009D02*
X43928571Y-51921009D01*
X44071428Y-52444819D02*
X43595238Y-52444819D01*
X43595238Y-52444819D02*
X43595238Y-51444819D01*
X43595238Y-51444819D02*
X44071428Y-51444819D01*
X44833333Y-51921009D02*
X44500000Y-51921009D01*
X44500000Y-52444819D02*
X44500000Y-51444819D01*
X44500000Y-51444819D02*
X44976190Y-51444819D01*
X45500000Y-51444819D02*
X45500000Y-51682914D01*
X45261905Y-51587676D02*
X45500000Y-51682914D01*
X45500000Y-51682914D02*
X45738095Y-51587676D01*
X45357143Y-51873390D02*
X45500000Y-51682914D01*
X45500000Y-51682914D02*
X45642857Y-51873390D01*
X46261905Y-51444819D02*
X46261905Y-51682914D01*
X46023810Y-51587676D02*
X46261905Y-51682914D01*
X46261905Y-51682914D02*
X46500000Y-51587676D01*
X46119048Y-51873390D02*
X46261905Y-51682914D01*
X46261905Y-51682914D02*
X46404762Y-51873390D01*
%TO.C,REF\u002A\u002A*%
D10*
X72500000Y-30000000D02*
X75500000Y-30000000D01*
X75500000Y-38000000D01*
X72500000Y-38000000D01*
X72500000Y-30000000D01*
D12*
X42670000Y-26490000D02*
X42670000Y-44330000D01*
X42670000Y-26490000D02*
X45330000Y-26490000D01*
X42670000Y-44330000D02*
X45330000Y-44330000D01*
X44000000Y-23890000D02*
X45330000Y-23890000D01*
X45330000Y-23890000D02*
X45330000Y-25220000D01*
X45330000Y-26490000D02*
X45330000Y-44330000D01*
%TO.C,0.1 uF*%
X106990000Y-24140580D02*
X106990000Y-23859420D01*
X108010000Y-24140580D02*
X108010000Y-23859420D01*
%TO.C,REF\u002A\u002A*%
X62170000Y-56070000D02*
X62170000Y-73910000D01*
X62170000Y-56070000D02*
X64830000Y-56070000D01*
X62170000Y-73910000D02*
X64830000Y-73910000D01*
X63500000Y-53470000D02*
X64830000Y-53470000D01*
X64830000Y-53470000D02*
X64830000Y-54800000D01*
X64830000Y-56070000D02*
X64830000Y-73910000D01*
%TO.C,120*%
X120762742Y-28477500D02*
X121237258Y-28477500D01*
X120762742Y-29522500D02*
X121237258Y-29522500D01*
%TO.C,REF\u002A\u002A*%
X98670000Y-21270000D02*
X98670000Y-79750000D01*
X98670000Y-21270000D02*
X101330000Y-21270000D01*
X98670000Y-79750000D02*
X101330000Y-79750000D01*
X100000000Y-18670000D02*
X101330000Y-18670000D01*
X101330000Y-18670000D02*
X101330000Y-20000000D01*
X101330000Y-21270000D02*
X101330000Y-79750000D01*
X61670000Y-26530000D02*
X61670000Y-44370000D01*
X61670000Y-26530000D02*
X64330000Y-26530000D01*
X61670000Y-44370000D02*
X64330000Y-44370000D01*
X63000000Y-23930000D02*
X64330000Y-23930000D01*
X64330000Y-23930000D02*
X64330000Y-25260000D01*
X64330000Y-26530000D02*
X64330000Y-44370000D01*
%TO.C,0.1 uF*%
X113859420Y-38490000D02*
X114140580Y-38490000D01*
X113859420Y-39510000D02*
X114140580Y-39510000D01*
%TO.C,REF\u002A\u002A*%
D10*
X72000000Y-59500000D02*
X75000000Y-59500000D01*
X75000000Y-67500000D01*
X72000000Y-67500000D01*
X72000000Y-59500000D01*
D12*
X83430000Y-21270000D02*
X83430000Y-79750000D01*
X83430000Y-21270000D02*
X86090000Y-21270000D01*
X83430000Y-79750000D02*
X86090000Y-79750000D01*
X84760000Y-18670000D02*
X86090000Y-18670000D01*
X86090000Y-18670000D02*
X86090000Y-20000000D01*
X86090000Y-21270000D02*
X86090000Y-79750000D01*
D13*
X112425000Y-28550000D02*
X115575000Y-28550000D01*
X112425000Y-33450000D02*
X112425000Y-28550000D01*
X115575000Y-28550000D02*
X115575000Y-33450000D01*
X115575000Y-33450000D02*
X112425000Y-33450000D01*
D14*
X111441419Y-28500000D02*
G75*
G02*
X111158581Y-28500000I-141419J0D01*
G01*
X111158581Y-28500000D02*
G75*
G02*
X111441419Y-28500000I141419J0D01*
G01*
D10*
X111000000Y-19000000D02*
X117000000Y-19000000D01*
X117000000Y-25000000D01*
X111000000Y-25000000D01*
X111000000Y-19000000D01*
D12*
X43170000Y-56030000D02*
X43170000Y-73870000D01*
X43170000Y-56030000D02*
X45830000Y-56030000D01*
X43170000Y-73870000D02*
X45830000Y-73870000D01*
X44500000Y-53430000D02*
X45830000Y-53430000D01*
X45830000Y-53430000D02*
X45830000Y-54760000D01*
X45830000Y-56030000D02*
X45830000Y-73870000D01*
%TD*%
M02*
